/* XPM */
static char * base_xpm[] = {
"48 48 617 2",
"  	c #BB6444",
". 	c #899799",
"+ 	c #A6B2B2",
"@ 	c #B7C3C2",
"# 	c #BDC9C8",
"$ 	c #BFCBCA",
"% 	c #BDCAC9",
"& 	c #BCCAC9",
"* 	c #BECBCA",
"= 	c #BFCCCB",
"- 	c #B5C1C0",
"; 	c #A0ABAB",
"> 	c #9FAAA9",
", 	c #B6C4C3",
"' 	c #C4D3D3",
") 	c #C8D8D8",
"! 	c #CAD9D9",
"~ 	c #C8D9D9",
"{ 	c #C9D9D9",
"] 	c #CADADA",
"^ 	c #C2D1D1",
"/ 	c #B2C0BF",
"( 	c #9DA8A7",
"_ 	c #889597",
": 	c #9FABAC",
"< 	c #AFBDBC",
"[ 	c #B9C8C8",
"} 	c #C0CFCF",
"| 	c #C5D4D4",
"1 	c #B8C6C6",
"2 	c #ADB9B9",
"3 	c #9EA8A7",
"4 	c #AEBBBB",
"5 	c #B7C6C6",
"6 	c #BBCACA",
"7 	c #BECDCD",
"8 	c #C1D0D0",
"9 	c #BBC9C9",
"0 	c #B5C3C3",
"a 	c #ADBABA",
"b 	c #889496",
"c 	c #A0ADAC",
"d 	c #AFBCBC",
"e 	c #B4C2C2",
"f 	c #B8C7C7",
"g 	c #BAC8C9",
"h 	c #B7C5C5",
"i 	c #B5C2C2",
"j 	c #ACB9B8",
"k 	c #9BA3A1",
"l 	c #AFBBBB",
"m 	c #B9C7C7",
"n 	c #BCCACA",
"o 	c #BAC8C8",
"p 	c #ADBBBB",
"q 	c #A6B0AE",
"r 	c #B4C1C0",
"s 	c #BAC9C9",
"t 	c #B5C5C5",
"u 	c #A4AEAD",
"v 	c #ABB6B5",
"w 	c #B7C4C3",
"x 	c #BCCBCB",
"y 	c #BFCECE",
"z 	c #B8C8C8",
"A 	c #B8CACB",
"B 	c #ADB2B0",
"C 	c #988379",
"D 	c #ADB7B6",
"E 	c #B8C5C4",
"F 	c #B8C8C9",
"G 	c #B7CBCD",
"H 	c #B5B5B0",
"I 	c #B08775",
"J 	c #AC6B53",
"K 	c #ADB8B7",
"L 	c #B9C6C5",
"M 	c #BFCDCD",
"N 	c #B7C8C9",
"O 	c #BAB6B1",
"P 	c #C08B76",
"Q 	c #C47050",
"R 	c #C66641",
"S 	c #C7633D",
"T 	c #C86641",
"U 	c #C76642",
"V 	c #C2633F",
"W 	c #B06044",
"X 	c #AEB8B7",
"Y 	c #B6CBCD",
"Z 	c #BCB8B3",
"` 	c #C7917B",
" .	c #CF7856",
"..	c #D26F48",
"+.	c #D36B44",
"@.	c #D36D48",
"#.	c #D4704B",
"$.	c #D8714C",
"%.	c #CD6D4A",
"&.	c #B46346",
"*.	c #AEB9B7",
"=.	c #BCB9B3",
"-.	c #CA947D",
";.	c #D37B5A",
">.	c #D6724C",
",.	c #D76F48",
"'.	c #D5704C",
").	c #D9744F",
"!.	c #E17852",
"~.	c #DE754E",
"{.	c #CE6B45",
"].	c #C8937D",
"^.	c #D07A59",
"/.	c #D3714B",
"(.	c #D46D47",
"_.	c #D26F4B",
":.	c #D6724E",
"<.	c #DE7651",
"[.	c #E17750",
"}.	c #DD744D",
"|.	c #BBB9B3",
"1.	c #C7927C",
"2.	c #CF7959",
"3.	c #D2704B",
"4.	c #D26C47",
"5.	c #D16E4A",
"6.	c #D4714D",
"7.	c #DC7550",
"8.	c #E27851",
"9.	c #E37850",
"0.	c #C1D1D1",
"a.	c #DB7550",
"b.	c #E07751",
"c.	c #C3D2D2",
"d.	c #C2D1D0",
"e.	c #C2D0D0",
"f.	c #E07750",
"g.	c #E0774F",
"h.	c #B9C6C6",
"i.	c #B6C5C5",
"j.	c #B5C4C4",
"k.	c #BDCCCC",
"l.	c #BECCCC",
"m.	c #B6C4C4",
"n.	c #B8C6C5",
"o.	c #B1BFBF",
"p.	c #B2C1C1",
"q.	c #B4C3C4",
"r.	c #B6C7C7",
"s.	c #B7C8C8",
"t.	c #B7C7C8",
"u.	c #B6C6C7",
"v.	c #B1BEBE",
"w.	c #B6C7C8",
"x.	c #B6CACD",
"y.	c #C8927C",
"z.	c #ABB9B9",
"A.	c #A5B5B6",
"B.	c #A2B3B5",
"C.	c #A1B4B6",
"D.	c #A1B5B7",
"E.	c #A1B5B6",
"F.	c #A1B3B5",
"G.	c #A3B4B5",
"H.	c #A7B5B6",
"I.	c #ACB9B9",
"J.	c #B0BFBF",
"K.	c #B4C5C6",
"L.	c #B6C9CC",
"M.	c #ACB7B5",
"N.	c #B4C1C1",
"O.	c #ACB9BA",
"P.	c #A5B1B1",
"Q.	c #9FAAAA",
"R.	c #9CA6A5",
"S.	c #9CA5A4",
"T.	c #9BA4A4",
"U.	c #9DA7A6",
"V.	c #A1ACAB",
"W.	c #A5B2B2",
"X.	c #B0C1C2",
"Y.	c #B3C7C9",
"Z.	c #BBB7B1",
"`.	c #A9B4B3",
" +	c #AEBDBE",
".+	c #A4B2B3",
"++	c #9EA8A8",
"@+	c #A0A19E",
"#+	c #A39C96",
"$+	c #A79A92",
"%+	c #A99991",
"&+	c #A89A92",
"*+	c #A49D96",
"=+	c #9EA2A0",
"-+	c #9FA9A9",
";+	c #ABBBBD",
">+	c #B0C3C5",
",+	c #B9B4AF",
"'+	c #CF7958",
")+	c #D2704C",
"!+	c #A7B2B0",
"~+	c #AEBBBA",
"{+	c #AAB9BA",
"]+	c #9DADAF",
"^+	c #9CA2A1",
"/+	c #A79890",
"(+	c #B39182",
"_+	c #BE8B77",
":+	c #C28973",
"<+	c #C08A75",
"[+	c #BF8B76",
"}+	c #BF8A76",
"|+	c #BF8A75",
"1+	c #B49181",
"2+	c #A29B95",
"3+	c #A0ACAD",
"4+	c #A6B6B8",
"5+	c #ACBFC2",
"6+	c #B7B2AD",
"7+	c #C6907A",
"8+	c #D26C48",
"9+	c #A5AFAD",
"0+	c #ABB7B6",
"a+	c #A6B5B6",
"b+	c #98ABAE",
"c+	c #9D9F9D",
"d+	c #B49182",
"e+	c #CA856A",
"f+	c #DC7A55",
"g+	c #E4764D",
"h+	c #E17751",
"i+	c #DF7953",
"j+	c #DF7852",
"k+	c #E07851",
"l+	c #DD7A55",
"m+	c #CB8469",
"n+	c #AA968C",
"o+	c #9AA2A2",
"p+	c #9DA9AA",
"q+	c #A2B2B4",
"r+	c #A9BCBF",
"s+	c #B5B0AB",
"t+	c #C58F79",
"u+	c #D26D48",
"v+	c #A2ACAB",
"w+	c #A4B3B4",
"x+	c #97AAAC",
"y+	c #9C9F9D",
"z+	c #B59485",
"A+	c #CC896F",
"B+	c #DF7F5B",
"C+	c #E67B53",
"D+	c #E37D57",
"E+	c #E17E59",
"F+	c #E27E58",
"G+	c #E27D57",
"H+	c #E27D58",
"I+	c #E07F5B",
"J+	c #CD886E",
"K+	c #AB978E",
"L+	c #9CA7A8",
"M+	c #A0B0B1",
"N+	c #A7BABC",
"O+	c #B3AEA8",
"P+	c #C48D77",
"Q+	c #CF7857",
"R+	c #D36F4A",
"S+	c #D46C47",
"T+	c #D26D49",
"U+	c #DB754F",
"V+	c #A1AAA9",
"W+	c #A8B2B2",
"X+	c #A4B1B2",
"Y+	c #99A8A9",
"Z+	c #9BA2A0",
"`+	c #AB9F97",
" @	c #B99D8F",
".@	c #C59A87",
"+@	c #CA9984",
"@@	c #C89986",
"#@	c #C69A87",
"$@	c #C69987",
"%@	c #C79987",
"&@	c #C69A88",
"*@	c #BA9C8F",
"=@	c #A49F9B",
"-@	c #9AA3A3",
";@	c #A0AFB0",
">@	c #A5B8B9",
",@	c #B1ACA5",
"'@	c #C48B74",
")@	c #D07654",
"!@	c #D56E49",
"~@	c #D56B45",
"{@	c #D36C47",
"]@	c #D66F4A",
"^@	c #DD744E",
"/@	c #A0A9A8",
"(@	c #A7B2B1",
"_@	c #9BA7A7",
":@	c #9AA3A2",
"<@	c #A3A7A4",
"[@	c #ABA9A5",
"}@	c #B1ABA5",
"|@	c #B4ABA5",
"1@	c #B2ABA6",
"2@	c #B1ABA6",
"3@	c #B2ABA5",
"4@	c #B3ABA5",
"5@	c #9EA4A3",
"6@	c #9AA4A4",
"7@	c #9DA8A8",
"8@	c #A1AFAF",
"9@	c #A4B7B8",
"0@	c #B0ABA4",
"a@	c #C28B75",
"b@	c #CE7756",
"c@	c #D36F4B",
"d@	c #D26E4A",
"e@	c #D4714C",
"f@	c #DC754F",
"g@	c #E1764E",
"h@	c #A5B0B1",
"i@	c #9CA6A6",
"j@	c #A1ACAC",
"k@	c #A5AFAF",
"l@	c #A6B0B1",
"m@	c #A5B0B0",
"n@	c #A6B0B0",
"o@	c #A5AFB0",
"p@	c #A2ACAC",
"q@	c #9BA6A6",
"r@	c #99A4A4",
"s@	c #A1AEAF",
"t@	c #A5B6B7",
"u@	c #AFABA5",
"v@	c #BF8E7A",
"w@	c #C97B5E",
"x@	c #CE7453",
"y@	c #CE7150",
"z@	c #CC7352",
"A@	c #CF7554",
"B@	c #D97753",
"C@	c #E07850",
"D@	c #E2764D",
"E@	c #9FA9A8",
"F@	c #A6B1B1",
"G@	c #9EA7A7",
"H@	c #99A2A2",
"I@	c #97A4A4",
"J@	c #96A5A7",
"K@	c #96A6A8",
"L@	c #95A6A8",
"M@	c #96A5A8",
"N@	c #97A4A6",
"O@	c #97A3A3",
"P@	c #ADADAA",
"Q@	c #B59789",
"R@	c #BB8874",
"S@	c #BE836C",
"T@	c #BE826A",
"U@	c #BC836D",
"V@	c #C0846D",
"W@	c #C98468",
"X@	c #D4805F",
"Y@	c #DD7952",
"Z@	c #97A1A1",
"`@	c #909A9B",
" #	c #8A9595",
".#	c #859090",
"+#	c #838E8E",
"@#	c #848E8F",
"##	c #848F90",
"$#	c #848F8F",
"%#	c #838E8F",
"&#	c #858F90",
"*#	c #8A9495",
"=#	c #929C9D",
"-#	c #99A3A3",
";#	c #A2AEAE",
">#	c #A7B4B5",
",#	c #A8B1B0",
"'#	c #A7A6A2",
")#	c #A59E98",
"!#	c #A59C95",
"~#	c #A49C95",
"{#	c #A39D98",
"]#	c #A79C95",
"^#	c #AF998E",
"/#	c #BE8F7B",
"(#	c #D2805F",
"_#	c #96A0A0",
":#	c #8C9696",
"<#	c #848C8C",
"[#	c #7C8584",
"}#	c #7A8181",
"|#	c #7B8282",
"1#	c #7B8383",
"2#	c #7C8484",
"3#	c #838B8B",
"4#	c #909999",
"5#	c #9DA9A9",
"6#	c #A3AEAE",
"7#	c #A8B4B4",
"8#	c #A6B3B2",
"9#	c #9CAAAA",
"0#	c #96A5A6",
"a#	c #94A4A4",
"b#	c #93A3A5",
"c#	c #93A4A6",
"d#	c #96A4A5",
"e#	c #AB9A90",
"f#	c #C08A73",
"g#	c #9EAAAA",
"h#	c #96A1A1",
"i#	c #848D8D",
"j#	c #7D8585",
"k#	c #7A8282",
"l#	c #7C8383",
"m#	c #838C8C",
"n#	c #8F9A9A",
"o#	c #98A4A4",
"p#	c #A3AEAF",
"q#	c #A9B5B4",
"r#	c #A5B1B0",
"s#	c #98A3A4",
"t#	c #8F9B9B",
"u#	c #8C9899",
"v#	c #8B9798",
"w#	c #8B9898",
"x#	c #8D9A9B",
"y#	c #929FA0",
"z#	c #9B9F9C",
"A#	c #A8978E",
"B#	c #A6B2B1",
"C#	c #9EABAB",
"D#	c #95A1A1",
"E#	c #8C9797",
"F#	c #848E8E",
"G#	c #7E8686",
"H#	c #838D8D",
"I#	c #8F9A9B",
"J#	c #9CA9AA",
"K#	c #A3AFAF",
"L#	c #A9B5B5",
"M#	c #A4AFAF",
"N#	c #939D9D",
"O#	c #889292",
"P#	c #869191",
"Q#	c #8C9A9C",
"R#	c #93A0A0",
"S#	c #9A9F9D",
"T#	c #97A1A0",
"U#	c #8D9797",
"V#	c #858E8E",
"W#	c #7D8686",
"X#	c #909A9A",
"Y#	c #98A4A3",
"Z#	c #A9B5B6",
"`#	c #A2ADAE",
" $	c #8E9898",
".$	c #818A8A",
"+$	c #808989",
"@$	c #929D9D",
"#$	c #A8B1AF",
"$$	c #AEADA9",
"%$	c #B19F95",
"&$	c #AA958B",
"*$	c #9A8F89",
"=$	c #8B8B88",
"-$	c #7F8686",
";$	c #7A8485",
">$	c #7C8585",
",$	c #8A8A87",
"'$	c #A09188",
")$	c #AC998E",
"!$	c #ACA098",
"~$	c #ACAAA6",
"{$	c #ABB5B4",
"]$	c #A0AEAF",
"^$	c #7F8887",
"/$	c #788080",
"($	c #787F7F",
"_$	c #8A9292",
":$	c #929C9C",
"<$	c #96A1A2",
"[$	c #ACAFAB",
"}$	c #BDA498",
"|$	c #D28B70",
"1$	c #CE8062",
"2$	c #B28270",
"3$	c #97857C",
"4$	c #818685",
"5$	c #788788",
"6$	c #7C8687",
"7$	c #7C8686",
"8$	c #7D8687",
"9$	c #96847B",
"0$	c #BE8068",
"a$	c #CF8467",
"b$	c #C8907A",
"c$	c #BCA194",
"d$	c #AEB3B1",
"e$	c #9DB0B2",
"f$	c #798181",
"g$	c #7F8787",
"h$	c #8A9393",
"i$	c #939C9C",
"j$	c #ADAEA9",
"k$	c #C3A192",
"l$	c #DE8564",
"m$	c #DA7854",
"n$	c #B97D66",
"o$	c #998176",
"p$	c #808481",
"q$	c #758586",
"r$	c #7A8484",
"s$	c #7D8383",
"t$	c #7D8382",
"u$	c #7B8483",
"v$	c #7B8484",
"w$	c #7E8483",
"x$	c #998075",
"y$	c #C8795C",
"z$	c #DC7D59",
"A$	c #D18A6F",
"B$	c #C29D8D",
"C$	c #AFB2AF",
"D$	c #9CB1B3",
"E$	c #8C999A",
"F$	c #818A89",
"G$	c #808787",
"H$	c #8B9393",
"I$	c #98A0A0",
"J$	c #BDA598",
"K$	c #D28D72",
"L$	c #CD8063",
"M$	c #AE806D",
"N$	c #928076",
"O$	c #7B7F7C",
"P$	c #727E7E",
"Q$	c #767E7D",
"R$	c #797E7C",
"S$	c #797E7D",
"T$	c #787E7C",
"U$	c #777E7D",
"V$	c #797F7E",
"W$	c #917F75",
"X$	c #BD7E66",
"Y$	c #CF8367",
"Z$	c #C78F7A",
"`$	c #BCA094",
" %	c #AEB3B0",
".%	c #8C9999",
"+%	c #A1ABA9",
"@%	c #ABB2AF",
"#%	c #B6ACA4",
"$%	c #C09A8A",
"%%	c #B98D7B",
"&%	c #9F8679",
"*%	c #86807B",
"=%	c #707C7F",
"-%	c #707B7D",
";%	c #867E79",
">%	c #AA8779",
",%	c #BC9180",
"'%	c #B99B8E",
")%	c #B4A8A0",
"!%	c #ADB6B4",
"~%	c #A1B1B2",
"{%	c #8E999A",
"]%	c #828A8A",
"^%	c #808888",
"/%	c #8B9494",
"(%	c #949D9D",
"_%	c #99A2A1",
":%	c #ABB5B5",
"<%	c #ADB5B3",
"[%	c #AAABA8",
"}%	c #9F9D99",
"|%	c #8C8C88",
"1%	c #778184",
"2%	c #777E7F",
"3%	c #939390",
"4%	c #A3A29E",
"5%	c #A7A9A6",
"6%	c #AAB1B0",
"7%	c #ADBAB9",
"8%	c #A4B2B2",
"9%	c #909B9B",
"0%	c #818989",
"a%	c #8D9595",
"b%	c #969F9E",
"c%	c #9AA4A3",
"d%	c #979F9E",
"e%	c #9DA7A7",
"f%	c #9BA9AA",
"g%	c #93A4A7",
"h%	c #89999B",
"i%	c #7D8888",
"j%	c #6B8089",
"k%	c #809094",
"l%	c #8D9D9F",
"m%	c #92A2A3",
"n%	c #98A7A7",
"o%	c #9FABAB",
"p%	c #889191",
"q%	c #7D8484",
"r%	c #868D8D",
"s%	c #8D9594",
"t%	c #909997",
"u%	c #7E8585",
"v%	c #81898A",
"w%	c #808A8C",
"x%	c #7C8789",
"y%	c #778283",
"z%	c #717A7B",
"                                                                                                ",
"                                                                                                ",
"                                                                                                ",
"                                                                                                ",
"              . + @ # $ % & % % % % % % % % % % % * = - ;                                       ",
"              > , ' ) ! ~ ) ) ) ) ) ) ) ) ) ) ) ) { ] ^ / (                                     ",
"          _ : < [ } ' | ' ' ' ' ' ' ' ' ' ' ' ' ' ' ' } 1 2 (                                   ",
"          3 4 5 6 7 8 ^ 8 8 8 8 8 8 8 8 8 8 8 8 8 8 } 7 9 0 a                                   ",
"      b c d e f 6 7 8 ^ 8 8 8 8 8 8 8 8 8 8 8 8 8 8 } 7 g h i j                                 ",
"      k l f 1 m n 7 8 ^ 8 8 8 8 8 8 8 8 8 8 8 8 8 8 } 7 o 1 1 0 p                               ",
"      q r s m m n 7 8 ^ 8 8 8 8 8 8 8 8 8 8 8 8 8 8 } 7 s 1 1 5 t u                             ",
"      v w 9 m m x y 8 ^ 8 8 8 8 8 8 8 8 8 8 8 8 8 8 } 7 9 m 1 z A B C                           ",
"      D E n m m x y 8 ^ 8 8 8 8 8 8 8 8 8 8 8 8 8 8 } 7 6 m 1 F G H I J                         ",
"      K L n m f x y 8 ^ 8 8 8 8 8 8 8 8 8 8 8 8 8 8 } M 6 m 1 N G O P Q R S T U V W             ",
"      X L n m f x y 8 ^ 8 8 8 8 8 8 8 8 8 8 8 8 8 8 } M 6 m 1 N Y Z `  ...+.@.#.$.%.&.          ",
"      *.L n m f x y 8 ^ 8 8 8 8 8 8 8 8 8 8 8 8 8 8 } M n m 1 N Y =.-.;.>.,.'.).!.~.{.          ",
"      *.L n m m x y 8 ^ 8 8 8 8 8 8 8 8 8 8 8 8 8 8 } M n m 1 N Y =.].^./.(._.:.<.[.}.          ",
"      *.L n m f x y 8 ^ 8 8 8 8 8 8 8 8 8 8 8 8 8 8 } 7 9 m 1 N Y |.1.2.3.4.5.6.7.8.9.          ",
"      *.L n m 1 6 7 8 ^ 0.8 8 8 8 8 8 8 8 8 8 8 8 8 } 7 s 1 1 N Y |.1.2.3.4.5.6.a.b.[.          ",
"      *.L n 1 h s 7 0.c.^ d.d.^ ^ ^ ^ ^ ^ ^ ^ ^ ^ e.8 7 m h h N Y =.1.2.3.4.5.6.a.f.g.          ",
"      *.h.6 i.j.m k.8 c.^ ^ ^ ^ ^ ^ ^ ^ ^ ^ ^ ^ ^ ^ 8 l.h e m.N Y =.1.2.3.4.5.6.a.f.g.          ",
"      *.n.s e o.p.q.r.N s.t.t.t.t.t.t.t.t.t.t.t.t.t.u.q.o.v.e w.x.Z y.2.3.4.5.6.a.f.g.          ",
"      K w 1 o.z.A.B.C.D.E.C.C.C.C.C.C.C.C.C.C.C.C.C.F.G.H.I.J.K.L.Z y.2.3.4.5.6.a.f.g.          ",
"      M.N.e O.P.Q.R.S.S.S.S.S.S.S.S.S.S.S.S.S.S.S.S.T.U.V.W.z.X.Y.Z.1.2.3.4.5.6.a.f.g.          ",
"      `.v. +.+++@+#+$+%+&+$+$+$+$+$+$+$+$+$+$+$+$+$+$+*+=+-+W.;+>+,+` '+)+4.5.6.a.f.g.          ",
"      !+~+{+]+^+/+(+_+:+<+[+[+}+}+}+}+}+}+}+}+|+|+|+_+1+2+T.3+4+5+6+7+'+)+8+5.6.a.f.g.          ",
"      9+0+a+b+c+d+e+f+g+h+i+i+i+i+i+i+i+i+i+i+j+k+j+l+m+n+o+p+q+r+s+t+'+)+u+5.6.a.b.g.          ",
"      v+`.w+x+y+z+A+B+C+D+E+E+E+E+E+E+E+E+E+E+F+G+H+I+J+K+o+L+M+N+O+P+Q+R+S+T+'.U+f.g.          ",
"      V+W+X+Y+Z+`+ @.@+@@@#@#@$@$@$@$@$@$@#@#@%@@@@@&@*@=@-@L+;@>@,@'@)@!@~@{@]@^@[.g.          ",
"      /@(@P._@:@<@[@}@|@1@2@2@2@2@2@2@2@2@2@2@1@3@4@3@[@5@6@7@8@9@0@a@b@c@S+d@e@f@[.g@          ",
"      /@(@h@i@-@7@j@k@l@h@m@m@m@m@m@m@m@m@m@m@m@m@n@o@p@q@r@7@s@t@u@v@w@x@y@z@A@B@C@D@          ",
"      E@(@F@G@H@I@J@K@L@K@K@K@K@K@K@K@K@K@K@K@K@M@M@M@N@O@r@7@s@a+P@Q@R@S@T@U@V@W@X@Y@          ",
"      E@(@F@-+Z@`@ #.#+#@#####################$#%#@#&#*#=#-#++;#>#,#'#)#!#~#{#]#^#/#(#          ",
"      E@(@+ Q._#:#<#[#}#|#1#1#1#1#1#1#1#1#1#1#1#|#|#2#3#4#-#5#6#7#8#9#0#a#b#c#d#^+e#f#          ",
"      E@(@+ g#h#:#i#j#k#l#2#2#2#2#2#2#2#2#2#2#2#1#1#2#m#n#o#5#p#q#r#s#t#u#v#w#x#y#z#A#          ",
"      E@B#+ C#D#E#F#G#1#2#j#j#j#j#j#j#j#j#j#j#j#2#2#j#H#I#I@J#K#L#M#N#O#F#m#m#P#Q#R#S#          ",
"      E@B#+ Q.T#U#V#W#1#2#j#j#j#j#j#j#j#j#j#j#j#2#2#W#H#X#Y#5#K#Z#`# $.$W#1#1#+$ #@$h#          ",
"      E@#$$$%$&$*$=$-$;$>$j#j#j#j#j#j#j#j#j#j#j#>$>$G#,$'$)$!$~${$]$E#^$k#/$($G#_$:$<$          ",
"      E@[$}$|$1$2$3$4$5$6$G#G#G#G#G#G#G#G#G#G#W#7$8$-$9$0$a$b$c$d$e$u#+$2#}#f$g$h$i$Z@          ",
"      E@j$k$l$m$n$o$p$q$r$s$s$s$s$s$s$s$s$s$t$l#u$v$w$x$y$z$A$B$C$D$E$F$j#k#k#G$H$i$I$          ",
"      E@[$J$K$L$M$N$O$P$Q$R$R$S$S$S$S$S$S$R$R$T$U$U$V$W$X$Y$Z$`$ %e$.%F$j#k#k#g$H$i$I$          ",
"      +%@%#%$%%%&%*%=%                              -%;%>%,%'%)%!%~%{%]%j#1#k#^%/%(%_%          ",
"      p@:%<%[%}%|%1%                                  2%3%4%5%6%7%8%9%3#G#l#1#0%a%b%c%          ",
"      d%e%f%g%h%i%j%                                    k%l%m%n%o%-#p%j#}#($($q%r%s%t%          ",
"      u%v%w%x%y%z%                                                                              ",
"                                                                                                ",
"                                                                                                ",
"                                                                                                "};
