/* XPM */
static char * base_battery_xpm[] = {
"48 48 686 2",
"  	c #BB6444",
". 	c #899799",
"+ 	c #A6B2B2",
"@ 	c #B7C3C2",
"# 	c #BDC9C8",
"$ 	c #BFCBCA",
"% 	c #BDCAC9",
"& 	c #BCCAC9",
"* 	c #BECBCA",
"= 	c #BFCCCB",
"- 	c #B5C1C0",
"; 	c #A0ABAB",
"> 	c #9FAAA9",
", 	c #B6C4C3",
"' 	c #C4D3D3",
") 	c #C8D8D8",
"! 	c #CAD9D9",
"~ 	c #C8D9D9",
"{ 	c #C9D9D9",
"] 	c #CADADA",
"^ 	c #C2D1D1",
"/ 	c #B2C0BF",
"( 	c #9DA8A7",
"_ 	c #889597",
": 	c #9FABAC",
"< 	c #AFBDBC",
"[ 	c #B9C8C8",
"} 	c #C0CFCF",
"| 	c #C5D4D4",
"1 	c #B8C6C6",
"2 	c #ADB9B9",
"3 	c #9EA8A7",
"4 	c #AEBBBB",
"5 	c #B7C6C6",
"6 	c #BBCACA",
"7 	c #BECDCD",
"8 	c #C1D0D0",
"9 	c #B3C6BF",
"0 	c #83A87D",
"a 	c #6AA350",
"b 	c #62A23B",
"c 	c #60A234",
"d 	c #65A343",
"e 	c #70A35D",
"f 	c #97B39A",
"g 	c #BDCDCB",
"h 	c #BBC9C9",
"i 	c #B5C3C3",
"j 	c #ADBABA",
"k 	c #889496",
"l 	c #A0ADAC",
"m 	c #AFBCBC",
"n 	c #B4C2C2",
"o 	c #B8C7C7",
"p 	c #87AB83",
"q 	c #68B435",
"r 	c #6FC537",
"s 	c #70C737",
"t 	c #71C837",
"u 	c #6EC336",
"v 	c #68AA44",
"w 	c #A1B9A7",
"x 	c #BAC8C9",
"y 	c #B7C5C5",
"z 	c #B5C2C2",
"A 	c #ACB9B8",
"B 	c #9BA3A1",
"C 	c #AFBBBB",
"D 	c #B9C7C7",
"E 	c #BCCACA",
"F 	c #66A345",
"G 	c #71C937",
"H 	c #70C835",
"I 	c #6EC833",
"J 	c #70C936",
"K 	c #71CA37",
"L 	c #6CBD36",
"M 	c #85AA81",
"N 	c #BAC8C8",
"O 	c #ADBBBB",
"P 	c #A6B0AE",
"Q 	c #B4C1C0",
"R 	c #BAC9C9",
"S 	c #60A334",
"T 	c #71C936",
"U 	c #8CD35D",
"V 	c #A7DE84",
"W 	c #A6DD81",
"X 	c #82CF4F",
"Y 	c #6DBF36",
"Z 	c #82A97C",
"` 	c #B5C5C5",
" .	c #A4AEAD",
"..	c #ABB6B5",
"+.	c #B7C4C3",
"@.	c #BCCBCB",
"#.	c #BFCECE",
"$.	c #C0E7A7",
"%.	c #FFFFFF",
"&.	c #EAF7E2",
"*.	c #85D154",
"=.	c #70C935",
"-.	c #83A97D",
";.	c #B8C8C8",
">.	c #B8CACB",
",.	c #ADB2B0",
"'.	c #988379",
").	c #ADB7B6",
"!.	c #B8C5C4",
"~.	c #72C939",
"{.	c #CBEBB6",
"].	c #B8C8C9",
"^.	c #B7CBCD",
"/.	c #B5B5B0",
"(.	c #B08775",
"_.	c #AC6B53",
":.	c #ADB8B7",
"<.	c #B9C6C5",
"[.	c #73CA39",
"}.	c #C7EAB0",
"|.	c #FEFFFE",
"1.	c #E1F3D4",
"2.	c #84D052",
"3.	c #BFCDCD",
"4.	c #B7C8C9",
"5.	c #BAB6B1",
"6.	c #C08B76",
"7.	c #C47050",
"8.	c #C66641",
"9.	c #C7633D",
"0.	c #C86641",
"a.	c #C76642",
"b.	c #C2633F",
"c.	c #B06044",
"d.	c #AEB8B7",
"e.	c #7ECE4A",
"f.	c #CCEBB7",
"g.	c #BFE7A6",
"h.	c #74CA3C",
"i.	c #B6CBCD",
"j.	c #BCB8B3",
"k.	c #C7917B",
"l.	c #CF7856",
"m.	c #D26F48",
"n.	c #D36B44",
"o.	c #D36D48",
"p.	c #D4704B",
"q.	c #D8714C",
"r.	c #CD6D4A",
"s.	c #B46346",
"t.	c #AEB9B7",
"u.	c #A7DD83",
"v.	c #80CF4C",
"w.	c #BCB9B3",
"x.	c #CA947D",
"y.	c #D37B5A",
"z.	c #D6724C",
"A.	c #D76F48",
"B.	c #D5704C",
"C.	c #D9744F",
"D.	c #E17852",
"E.	c #DE754E",
"F.	c #CE6B45",
"G.	c #65A244",
"H.	c #73CA3A",
"I.	c #7ACC44",
"J.	c #6BBC36",
"K.	c #88AB85",
"L.	c #C8937D",
"M.	c #D07A59",
"N.	c #D3714B",
"O.	c #D46D47",
"P.	c #D26F4B",
"Q.	c #D6724E",
"R.	c #DE7651",
"S.	c #E17750",
"T.	c #DD744D",
"U.	c #84A97F",
"V.	c #68B535",
"W.	c #70C837",
"X.	c #70C836",
"Y.	c #69AA45",
"Z.	c #A3BAAA",
"`.	c #BBB9B3",
" +	c #C7927C",
".+	c #CF7959",
"++	c #D2704B",
"@+	c #D26C47",
"#+	c #D16E4A",
"$+	c #D4714D",
"%+	c #DC7550",
"&+	c #E27851",
"*+	c #E37850",
"=+	c #B3C7C0",
"-+	c #62A23D",
";+	c #69A24E",
">+	c #DB7550",
",+	c #E07751",
"'+	c #C1D1D1",
")+	c #C3D2D2",
"!+	c #C2D1D0",
"~+	c #C2D0D0",
"{+	c #E07750",
"]+	c #E0774F",
"^+	c #B9C6C6",
"/+	c #B6C5C5",
"(+	c #B5C4C4",
"_+	c #BDCCCC",
":+	c #BECCCC",
"<+	c #B6C4C4",
"[+	c #B8C6C5",
"}+	c #B1BFBF",
"|+	c #B2C1C1",
"1+	c #B4C3C4",
"2+	c #B6C7C7",
"3+	c #B7C8C8",
"4+	c #B7C7C8",
"5+	c #B6C6C7",
"6+	c #B1BEBE",
"7+	c #B6C7C8",
"8+	c #B6CACD",
"9+	c #C8927C",
"0+	c #ABB9B9",
"a+	c #A5B5B6",
"b+	c #A2B3B5",
"c+	c #A1B4B6",
"d+	c #A1B5B7",
"e+	c #A1B5B6",
"f+	c #A1B3B5",
"g+	c #A3B4B5",
"h+	c #A7B5B6",
"i+	c #ACB9B9",
"j+	c #B0BFBF",
"k+	c #B4C5C6",
"l+	c #B6C9CC",
"m+	c #ACB7B5",
"n+	c #B4C1C1",
"o+	c #ACB9BA",
"p+	c #A5B1B1",
"q+	c #9FAAAA",
"r+	c #9CA6A5",
"s+	c #9CA5A4",
"t+	c #9BA4A4",
"u+	c #9DA7A6",
"v+	c #A1ACAB",
"w+	c #A5B2B2",
"x+	c #B0C1C2",
"y+	c #B3C7C9",
"z+	c #BBB7B1",
"A+	c #A9B4B3",
"B+	c #AEBDBE",
"C+	c #A4B2B3",
"D+	c #9EA8A8",
"E+	c #A0A19E",
"F+	c #A39C96",
"G+	c #A79A92",
"H+	c #A99991",
"I+	c #A89A92",
"J+	c #A49D96",
"K+	c #9EA2A0",
"L+	c #9FA9A9",
"M+	c #ABBBBD",
"N+	c #B0C3C5",
"O+	c #B9B4AF",
"P+	c #CF7958",
"Q+	c #D2704C",
"R+	c #A7B2B0",
"S+	c #AEBBBA",
"T+	c #AAB9BA",
"U+	c #9DADAF",
"V+	c #9CA2A1",
"W+	c #A79890",
"X+	c #B39182",
"Y+	c #BE8B77",
"Z+	c #C28973",
"`+	c #C08A75",
" @	c #BF8B76",
".@	c #BF8A76",
"+@	c #BF8A75",
"@@	c #B49181",
"#@	c #A29B95",
"$@	c #A0ACAD",
"%@	c #A6B6B8",
"&@	c #ACBFC2",
"*@	c #B7B2AD",
"=@	c #C6907A",
"-@	c #D26C48",
";@	c #A5AFAD",
">@	c #ABB7B6",
",@	c #A6B5B6",
"'@	c #98ABAE",
")@	c #9D9F9D",
"!@	c #B49182",
"~@	c #CA856A",
"{@	c #DC7A55",
"]@	c #E4764D",
"^@	c #E17751",
"/@	c #DF7953",
"(@	c #DF7852",
"_@	c #E07851",
":@	c #DD7A55",
"<@	c #CB8469",
"[@	c #AA968C",
"}@	c #9AA2A2",
"|@	c #9DA9AA",
"1@	c #A2B2B4",
"2@	c #A9BCBF",
"3@	c #B5B0AB",
"4@	c #C58F79",
"5@	c #D26D48",
"6@	c #A2ACAB",
"7@	c #A4B3B4",
"8@	c #97AAAC",
"9@	c #9C9F9D",
"0@	c #B59485",
"a@	c #CC896F",
"b@	c #DF7F5B",
"c@	c #E67B53",
"d@	c #E37D57",
"e@	c #E17E59",
"f@	c #E27E58",
"g@	c #E27D57",
"h@	c #E27D58",
"i@	c #E07F5B",
"j@	c #CD886E",
"k@	c #AB978E",
"l@	c #9CA7A8",
"m@	c #A0B0B1",
"n@	c #A7BABC",
"o@	c #B3AEA8",
"p@	c #C48D77",
"q@	c #CF7857",
"r@	c #D36F4A",
"s@	c #D46C47",
"t@	c #D26D49",
"u@	c #DB754F",
"v@	c #A1AAA9",
"w@	c #A8B2B2",
"x@	c #A4B1B2",
"y@	c #99A8A9",
"z@	c #9BA2A0",
"A@	c #AB9F97",
"B@	c #B99D8F",
"C@	c #C59A87",
"D@	c #CA9984",
"E@	c #C89986",
"F@	c #C69A87",
"G@	c #C69987",
"H@	c #C79987",
"I@	c #C69A88",
"J@	c #BA9C8F",
"K@	c #A49F9B",
"L@	c #9AA3A3",
"M@	c #A0AFB0",
"N@	c #A5B8B9",
"O@	c #B1ACA5",
"P@	c #C48B74",
"Q@	c #D07654",
"R@	c #D56E49",
"S@	c #D56B45",
"T@	c #D36C47",
"U@	c #D66F4A",
"V@	c #DD744E",
"W@	c #A0A9A8",
"X@	c #A7B2B1",
"Y@	c #9BA7A7",
"Z@	c #9AA3A2",
"`@	c #A3A7A4",
" #	c #ABA9A5",
".#	c #B1ABA5",
"+#	c #B4ABA5",
"@#	c #B2ABA6",
"##	c #B1ABA6",
"$#	c #B2ABA5",
"%#	c #B3ABA5",
"&#	c #9EA4A3",
"*#	c #9AA4A4",
"=#	c #9DA8A8",
"-#	c #A1AFAF",
";#	c #A4B7B8",
">#	c #B0ABA4",
",#	c #C28B75",
"'#	c #CE7756",
")#	c #D36F4B",
"!#	c #D26E4A",
"~#	c #D4714C",
"{#	c #DC754F",
"]#	c #E1764E",
"^#	c #A5B0B1",
"/#	c #9CA6A6",
"(#	c #A1ACAC",
"_#	c #A5AFAF",
":#	c #A6B0B1",
"<#	c #A5B0B0",
"[#	c #A6B0B0",
"}#	c #A5AFB0",
"|#	c #A2ACAC",
"1#	c #9BA6A6",
"2#	c #99A4A4",
"3#	c #A1AEAF",
"4#	c #A5B6B7",
"5#	c #AFABA5",
"6#	c #BF8E7A",
"7#	c #C97B5E",
"8#	c #CE7453",
"9#	c #CE7150",
"0#	c #CC7352",
"a#	c #CF7554",
"b#	c #D97753",
"c#	c #E07850",
"d#	c #E2764D",
"e#	c #9FA9A8",
"f#	c #A6B1B1",
"g#	c #9EA7A7",
"h#	c #99A2A2",
"i#	c #97A4A4",
"j#	c #96A5A7",
"k#	c #96A6A8",
"l#	c #95A6A8",
"m#	c #96A5A8",
"n#	c #97A4A6",
"o#	c #97A3A3",
"p#	c #ADADAA",
"q#	c #B59789",
"r#	c #BB8874",
"s#	c #BE836C",
"t#	c #BE826A",
"u#	c #BC836D",
"v#	c #C0846D",
"w#	c #C98468",
"x#	c #D4805F",
"y#	c #DD7952",
"z#	c #97A1A1",
"A#	c #909A9B",
"B#	c #8A9595",
"C#	c #859090",
"D#	c #838E8E",
"E#	c #848E8F",
"F#	c #848F90",
"G#	c #848F8F",
"H#	c #838E8F",
"I#	c #858F90",
"J#	c #8A9495",
"K#	c #929C9D",
"L#	c #99A3A3",
"M#	c #A2AEAE",
"N#	c #A7B4B5",
"O#	c #A8B1B0",
"P#	c #A7A6A2",
"Q#	c #A59E98",
"R#	c #A59C95",
"S#	c #A49C95",
"T#	c #A39D98",
"U#	c #A79C95",
"V#	c #AF998E",
"W#	c #BE8F7B",
"X#	c #D2805F",
"Y#	c #96A0A0",
"Z#	c #8C9696",
"`#	c #848C8C",
" $	c #7C8584",
".$	c #7A8181",
"+$	c #7B8282",
"@$	c #7B8383",
"#$	c #7C8484",
"$$	c #838B8B",
"%$	c #909999",
"&$	c #9DA9A9",
"*$	c #A3AEAE",
"=$	c #A8B4B4",
"-$	c #A6B3B2",
";$	c #9CAAAA",
">$	c #96A5A6",
",$	c #94A4A4",
"'$	c #93A3A5",
")$	c #93A4A6",
"!$	c #96A4A5",
"~$	c #AB9A90",
"{$	c #C08A73",
"]$	c #9EAAAA",
"^$	c #96A1A1",
"/$	c #848D8D",
"($	c #7D8585",
"_$	c #7A8282",
":$	c #7C8383",
"<$	c #838C8C",
"[$	c #8F9A9A",
"}$	c #98A4A4",
"|$	c #A3AEAF",
"1$	c #A9B5B4",
"2$	c #A5B1B0",
"3$	c #98A3A4",
"4$	c #8F9B9B",
"5$	c #8C9899",
"6$	c #8B9798",
"7$	c #8B9898",
"8$	c #8D9A9B",
"9$	c #929FA0",
"0$	c #9B9F9C",
"a$	c #A8978E",
"b$	c #A6B2B1",
"c$	c #9EABAB",
"d$	c #95A1A1",
"e$	c #8C9797",
"f$	c #848E8E",
"g$	c #7E8686",
"h$	c #838D8D",
"i$	c #8F9A9B",
"j$	c #9CA9AA",
"k$	c #A3AFAF",
"l$	c #A9B5B5",
"m$	c #A4AFAF",
"n$	c #939D9D",
"o$	c #889292",
"p$	c #869191",
"q$	c #8C9A9C",
"r$	c #93A0A0",
"s$	c #9A9F9D",
"t$	c #97A1A0",
"u$	c #8D9797",
"v$	c #858E8E",
"w$	c #7D8686",
"x$	c #909A9A",
"y$	c #98A4A3",
"z$	c #A9B5B6",
"A$	c #A2ADAE",
"B$	c #8E9898",
"C$	c #818A8A",
"D$	c #808989",
"E$	c #929D9D",
"F$	c #A8B1AF",
"G$	c #AEADA9",
"H$	c #B19F95",
"I$	c #AA958B",
"J$	c #9A8F89",
"K$	c #8B8B88",
"L$	c #7F8686",
"M$	c #7A8485",
"N$	c #7C8585",
"O$	c #8A8A87",
"P$	c #A09188",
"Q$	c #AC998E",
"R$	c #ACA098",
"S$	c #ACAAA6",
"T$	c #ABB5B4",
"U$	c #A0AEAF",
"V$	c #7F8887",
"W$	c #788080",
"X$	c #787F7F",
"Y$	c #8A9292",
"Z$	c #929C9C",
"`$	c #96A1A2",
" %	c #ACAFAB",
".%	c #BDA498",
"+%	c #D28B70",
"@%	c #CE8062",
"#%	c #B28270",
"$%	c #97857C",
"%%	c #818685",
"&%	c #788788",
"*%	c #7C8687",
"=%	c #7C8686",
"-%	c #7D8687",
";%	c #96847B",
">%	c #BE8068",
",%	c #CF8467",
"'%	c #C8907A",
")%	c #BCA194",
"!%	c #AEB3B1",
"~%	c #9DB0B2",
"{%	c #798181",
"]%	c #7F8787",
"^%	c #8A9393",
"/%	c #939C9C",
"(%	c #ADAEA9",
"_%	c #C3A192",
":%	c #DE8564",
"<%	c #DA7854",
"[%	c #B97D66",
"}%	c #998176",
"|%	c #808481",
"1%	c #758586",
"2%	c #7A8484",
"3%	c #7D8383",
"4%	c #7D8382",
"5%	c #7B8483",
"6%	c #7B8484",
"7%	c #7E8483",
"8%	c #998075",
"9%	c #C8795C",
"0%	c #DC7D59",
"a%	c #D18A6F",
"b%	c #C29D8D",
"c%	c #AFB2AF",
"d%	c #9CB1B3",
"e%	c #8C999A",
"f%	c #818A89",
"g%	c #808787",
"h%	c #8B9393",
"i%	c #98A0A0",
"j%	c #BDA598",
"k%	c #D28D72",
"l%	c #CD8063",
"m%	c #AE806D",
"n%	c #928076",
"o%	c #7B7F7C",
"p%	c #727E7E",
"q%	c #767E7D",
"r%	c #797E7C",
"s%	c #797E7D",
"t%	c #787E7C",
"u%	c #777E7D",
"v%	c #797F7E",
"w%	c #917F75",
"x%	c #BD7E66",
"y%	c #CF8367",
"z%	c #C78F7A",
"A%	c #BCA094",
"B%	c #AEB3B0",
"C%	c #8C9999",
"D%	c #A1ABA9",
"E%	c #ABB2AF",
"F%	c #B6ACA4",
"G%	c #C09A8A",
"H%	c #B98D7B",
"I%	c #9F8679",
"J%	c #86807B",
"K%	c #707C7F",
"L%	c #697E86",
"M%	c #6A7D83",
"N%	c #707B7D",
"O%	c #867E79",
"P%	c #AA8779",
"Q%	c #BC9180",
"R%	c #B99B8E",
"S%	c #B4A8A0",
"T%	c #ADB6B4",
"U%	c #A1B1B2",
"V%	c #8E999A",
"W%	c #828A8A",
"X%	c #808888",
"Y%	c #8B9494",
"Z%	c #949D9D",
"`%	c #99A2A1",
" &	c #ABB5B5",
".&	c #ADB5B3",
"+&	c #AAABA8",
"@&	c #9F9D99",
"#&	c #8C8C88",
"$&	c #778184",
"%&	c #777E7F",
"&&	c #939390",
"*&	c #A3A29E",
"=&	c #A7A9A6",
"-&	c #AAB1B0",
";&	c #ADBAB9",
">&	c #A4B2B2",
",&	c #909B9B",
"'&	c #818989",
")&	c #8D9595",
"!&	c #969F9E",
"~&	c #9AA4A3",
"{&	c #979F9E",
"]&	c #9DA7A7",
"^&	c #9BA9AA",
"/&	c #93A4A7",
"(&	c #89999B",
"_&	c #7D8888",
":&	c #6B8089",
"<&	c #6B7D84",
"[&	c #809094",
"}&	c #8D9D9F",
"|&	c #92A2A3",
"1&	c #98A7A7",
"2&	c #9FABAB",
"3&	c #889191",
"4&	c #7D8484",
"5&	c #868D8D",
"6&	c #8D9594",
"7&	c #909997",
"8&	c #7E8585",
"9&	c #81898A",
"0&	c #808A8C",
"a&	c #7C8789",
"b&	c #778283",
"c&	c #717A7B",
"                                                                                                ",
"                                                                                                ",
"                                                                                                ",
"                                                                                                ",
"              . + @ # $ % & % % % % % % % % % % % * = - ;                                       ",
"              > , ' ) ! ~ ) ) ) ) ) ) ) ) ) ) ) ) { ] ^ / (                                     ",
"          _ : < [ } ' | ' ' ' ' ' ' ' ' ' ' ' ' ' ' ' } 1 2 (                                   ",
"          3 4 5 6 7 8 ^ 9 0 a b c c c c d e f g 8 8 } 7 h i j                                   ",
"      k l m n o 6 7 8 ^ p q r s t t t t s u v w 8 8 } 7 x y z A                                 ",
"      B C o 1 D E 7 8 ^ F s G G H I I J G K L M 8 8 } 7 N 1 1 i O                               ",
"      P Q R D D E 7 8 ^ S t G T U V W X J K Y Z 8 8 } 7 R 1 1 5 `  .                            ",
"      ..+.h D D @.#.8 ^ S t G G $.%.&.*.=.K Y -.8 8 } 7 h D 1 ;.>.,.'.                          ",
"      ).!.E D D @.#.8 ^ S t G ~.{.%.$.~.G K Y -.8 8 } 7 6 D 1 ].^./.(._.                        ",
"      :.<.E D o @.#.8 ^ S t G [.}.|.1.2.J K Y -.8 8 } 3.6 D 1 4.^.5.6.7.8.9.0.a.b.c.            ",
"      d.<.E D o @.#.8 ^ S t G G e.f.g.h.G K Y -.8 8 } 3.6 D 1 4.i.j.k.l.m.n.o.p.q.r.s.          ",
"      t.<.E D o @.#.8 ^ S t G G [.u.v.J G K Y -.8 8 } 3.E D 1 4.i.w.x.y.z.A.B.C.D.E.F.          ",
"      t.<.E D D @.#.8 ^ G.s G G H.I.G G G K J.K.8 8 } 3.E D 1 4.i.w.L.M.N.O.P.Q.R.S.T.          ",
"      t.<.E D o @.#.8 ^ U.V.s t W.X.t t t r Y.Z.8 8 } 7 h D 1 4.i.`. +.+++@+#+$+%+&+*+          ",
"      t.<.E D 1 6 7 8 ^ =+-.-+c c c c c c ;+f g 8 8 } 7 R 1 1 4.i.`. +.+++@+#+$+>+,+S.          ",
"      t.<.E 1 y R 7 '+)+^ !+!+^ ^ ^ ^ ^ ^ ^ ^ ^ ^ ~+8 7 D y y 4.i.w. +.+++@+#+$+>+{+]+          ",
"      t.^+6 /+(+D _+8 )+^ ^ ^ ^ ^ ^ ^ ^ ^ ^ ^ ^ ^ ^ 8 :+y n <+4.i.w. +.+++@+#+$+>+{+]+          ",
"      t.[+R n }+|+1+2+4.3+4+4+4+4+4+4+4+4+4+4+4+4+4+5+1+}+6+n 7+8+j.9+.+++@+#+$+>+{+]+          ",
"      :.+.1 }+0+a+b+c+d+e+c+c+c+c+c+c+c+c+c+c+c+c+c+f+g+h+i+j+k+l+j.9+.+++@+#+$+>+{+]+          ",
"      m+n+n o+p+q+r+s+s+s+s+s+s+s+s+s+s+s+s+s+s+s+s+t+u+v+w+0+x+y+z+ +.+++@+#+$+>+{+]+          ",
"      A+6+B+C+D+E+F+G+H+I+G+G+G+G+G+G+G+G+G+G+G+G+G+G+J+K+L+w+M+N+O+k.P+Q+@+#+$+>+{+]+          ",
"      R+S+T+U+V+W+X+Y+Z+`+ @ @.@.@.@.@.@.@.@.@+@+@+@Y+@@#@t+$@%@&@*@=@P+Q+-@#+$+>+{+]+          ",
"      ;@>@,@'@)@!@~@{@]@^@/@/@/@/@/@/@/@/@/@/@(@_@(@:@<@[@}@|@1@2@3@4@P+Q+5@#+$+>+,+]+          ",
"      6@A+7@8@9@0@a@b@c@d@e@e@e@e@e@e@e@e@e@e@f@g@h@i@j@k@}@l@m@n@o@p@q@r@s@t@B.u@{+]+          ",
"      v@w@x@y@z@A@B@C@D@E@F@F@G@G@G@G@G@G@F@F@H@E@E@I@J@K@L@l@M@N@O@P@Q@R@S@T@U@V@S.]+          ",
"      W@X@p+Y@Z@`@ #.#+#@#####################@#$#%#$# #&#*#=#-#;#>#,#'#)#s@!#~#{#S.]#          ",
"      W@X@^#/#L@=#(#_#:#^#<#<#<#<#<#<#<#<#<#<#<#<#[#}#|#1#2#=#3#4#5#6#7#8#9#0#a#b#c#d#          ",
"      e#X@f#g#h#i#j#k#l#k#k#k#k#k#k#k#k#k#k#k#k#m#m#m#n#o#2#=#3#,@p#q#r#s#t#u#v#w#x#y#          ",
"      e#X@f#L+z#A#B#C#D#E#F#F#F#F#F#F#F#F#F#F#G#H#E#I#J#K#L#D+M#N#O#P#Q#R#S#T#U#V#W#X#          ",
"      e#X@+ q+Y#Z#`# $.$+$@$@$@$@$@$@$@$@$@$@$@$+$+$#$$$%$L#&$*$=$-$;$>$,$'$)$!$V+~${$          ",
"      e#X@+ ]$^$Z#/$($_$:$#$#$#$#$#$#$#$#$#$#$#$@$@$#$<$[$}$&$|$1$2$3$4$5$6$7$8$9$0$a$          ",
"      e#b$+ c$d$e$f$g$@$#$($($($($($($($($($($($#$#$($h$i$i#j$k$l$m$n$o$f$<$<$p$q$r$s$          ",
"      e#b$+ q+t$u$v$w$@$#$($($($($($($($($($($($#$#$w$h$x$y$&$k$z$A$B$C$w$@$@$D$B#E$^$          ",
"      e#F$G$H$I$J$K$L$M$N$($($($($($($($($($($($N$N$g$O$P$Q$R$S$T$U$e$V$_$W$X$g$Y$Z$`$          ",
"      e# %.%+%@%#%$%%%&%*%g$g$g$g$g$g$g$g$g$g$w$=%-%L$;%>%,%'%)%!%~%5$D$#$.${%]%^%/%z#          ",
"      e#(%_%:%<%[%}%|%1%2%3%3%3%3%3%3%3%3%3%4%:$5%6%7%8%9%0%a%b%c%d%e%f%($_$_$g%h%/%i%          ",
"      e# %j%k%l%m%n%o%p%q%r%r%s%s%s%s%s%s%r%r%t%u%u%v%w%x%y%z%A%B%~%C%f%($_$_$]%h%/%i%          ",
"      D%E%F%G%H%I%J%K%                          L%M%N%O%P%Q%R%S%T%U%V%W%($@$_$X%Y%Z%`%          ",
"      |# &.&+&@&#&$&                                  %&&&*&=&-&;&>&,&$$g$:$@$'&)&!&~&          ",
"      {&]&^&/&(&_&:&                                  <&[&}&|&1&2&L#3&($.$X$X$4&5&6&7&          ",
"      8&9&0&a&b&c&                                                                              ",
"                                                                                                ",
"                                                                                                ",
"                                                                                                "};
