/* XPM */
static char * battery_xpm[] = {
"48 48 73 1",
" 	c #BC6443",
".	c #BB6444",
"+	c #BE6545",
"@	c #BD6544",
"#	c #BC6444",
"$	c #C06645",
"%	c #BB6343",
"&	c #BC6544",
"*	c #BA6343",
"=	c #B76242",
"-	c #B96343",
";	c #BA6243",
">	c #B86243",
",	c #BA6342",
"'	c #B66141",
")	c #BD6545",
"!	c #B76141",
"~	c #A4723E",
"{	c #8E7C3A",
"]	c #798338",
"^	c #578E33",
"/	c #937B3B",
"(	c #AD6C40",
"_	c #BC6343",
":	c #718536",
"<	c #B26941",
"[	c #BB6443",
"}	c #B86343",
"|	c #BA6444",
"1	c #B76543",
"2	c #608B32",
"3	c #60A434",
"4	c #68B635",
"5	c #6ABA36",
"6	c #71C937",
"7	c #BA6344",
"8	c #818138",
"9	c #5B9933",
"0	c #6DC136",
"a	c #728636",
"b	c #BF6645",
"c	c #589133",
"d	c #6FC536",
"e	c #A1753E",
"f	c #64AB35",
"g	c #838139",
"h	c #608B33",
"i	c #BF6545",
"j	c #94D669",
"k	c #FFFFFF",
"l	c #DBF1CD",
"m	c #A6DD82",
"n	c #B8E49B",
"o	c #BE6645",
"p	c #C9EAB4",
"q	c #BD6341",
"r	c #BD6342",
"s	c #F6FBF2",
"t	c #9DD975",
"u	c #EDF8E6",
"v	c #8BD35C",
"w	c #79CC43",
"x	c #AFE08E",
"y	c #82CF50",
"z	c #D2EEC0",
"A	c #887E3A",
"B	c #62A734",
"C	c #897E3A",
"D	c #A6723F",
"E	c #7A8338",
"F	c #67B235",
"G	c #BC6545",
"H	c #B56142",
" ...+@.................  ...+@................. ",
" ..#$+#................  ..#$+#................ ",
"%...&#..........*=-....%%...&#..........*=-....%",
";...............*>*....,;...............*>*....,",
"'......................''......................'",
"'.................)+#..''.................)+#..'",
"!................#++#..!!................#++#..!",
"%..........~{]]]^^^^^^^^^^^^^^^]]]/(......##...%",
"_.--.....(:^^^^^^^^^^^^^^^^^^^^^^^^^]<.#...#...[",
" .}=|...12^^34556666666666666665543^^2(###..... ",
" .|7....8^906666666666666666666666609^a+bb)###. ",
" ......(^cd6666666666666666666666666dc^ebb)#... ",
" ......{^f666666666666666666666666666f^gbb)#... ",
" ......a^06666666666666666666666666660^h))#.... ",
" ......^^66666666666666666666666666666^^....... ",
" ......^^66666666666666666666666666666^^1...... ",
" ....))^^66666666666666666666666666666^^....... ",
" ....)i^^6666666666jkkkkkkkl6666666666^^....##. ",
" .....#^^6666666666mkkkkkkkj6666666666^^...#b+. ",
" .@)...^^6666666666nkkkkkkl66666666666^^...#+). ",
" .o$#..^^6666666666nkkkkkkj66666666666^^....##. ",
" .&)#..^^6666666666pkkkkkl666666666666^^....... ",
" ......^^6666666666lkkkkkj666666666666^^....... ",
"qr     ^^6666666666lkkkkst666666666666^^     rrq",
" ...+@.^^6666666666skkkkkkum6666666666^^....... ",
" ..#$+#^^6666666666ukkkkkksv6666666666^^....... ",
"%...&#.^^66666666666mlkkkkm66666666666^^*=-....%",
";......^^6666666666666mkkp666666666666^^*>*....,",
"'......^^6666666666666nkuw666666666666^^.......'",
"'......^^6666666666666lkv6666666666666^^..)+#..'",
"!......^^6666666666666sx66666666666666^^.#++#..!",
"%......^^666666666666yz666666666666666^^..##...%",
"_.--...^^666666666666jw66666666666666d^^...#...[",
" .}=|..a^56666666666666666666666666665^a##..... ",
" .|7...A^B666666666666666666666666666B^Cbb)###. ",
" ......~^c066666666666666666666666660c^Dbb)#... ",
" .......]^9d66666666666666666666666d9^Eibb)#... ",
" .......(2^cFd6666666666666666666dFc^2(G))#.... ",
" ........1]^^^^^^^^^^^^^^^^^^^^^^^^^]17........ ",
" ..........~82^^^^^^^^^^^^^^^^^^^2A~.7>7....... ",
" ....))&.....7-........  ....))&.....7-........ ",
" ....)i&............##.  ....)i&............##. ",
" .....##...........#b+.  .....##...........#b+. ",
" .@)...............#+).  .@)...............#+). ",
" .o$#...............##.  .o$#...............##. ",
" .&)#...%>*............  .&)#...%>*............ ",
" .......*H>|...........  .......*H>|........... ",
"qr       _           rrqqr       _           rrq"};
