/* XPM */
static char * grass_xpm[] = {
"34 34 984 2",
"  	c #6FB72E",
". 	c #67AF29",
"+ 	c #5EA525",
"@ 	c #549A1E",
"# 	c #56992A",
"$ 	c #468C1A",
"% 	c #428A2A",
"& 	c #42892B",
"* 	c #519426",
"= 	c #589633",
"- 	c #5A9931",
"; 	c #60A42F",
"> 	c #438A26",
", 	c #459133",
"' 	c #418A39",
") 	c #408938",
"! 	c #458D30",
"~ 	c #4C9434",
"{ 	c #48902A",
"] 	c #52932B",
"^ 	c #478C19",
"/ 	c #4E941B",
"( 	c #6FB633",
"_ 	c #75BE35",
": 	c #65AC2D",
"< 	c #58992E",
"[ 	c #458E19",
"} 	c #5BA722",
"| 	c #45912B",
"1 	c #458B1A",
"2 	c #498F1A",
"3 	c #549922",
"4 	c #549921",
"5 	c #68B029",
"6 	c #5AA21F",
"7 	c #4E951A",
"8 	c #478D19",
"9 	c #438819",
"0 	c #44891B",
"a 	c #51912B",
"b 	c #5F9B3B",
"c 	c #5D9938",
"d 	c #4D8F27",
"e 	c #428A2B",
"f 	c #418C3C",
"g 	c #3F8B42",
"h 	c #3E8941",
"i 	c #458F37",
"j 	c #4E9625",
"k 	c #4D9419",
"l 	c #478C1A",
"m 	c #488E18",
"n 	c #52991B",
"o 	c #67AF2B",
"p 	c #78C138",
"q 	c #6DB433",
"r 	c #509523",
"s 	c #469019",
"t 	c #4C9A1A",
"u 	c #49951B",
"v 	c #448819",
"w 	c #458A19",
"x 	c #458A17",
"y 	c #69B02A",
"z 	c #4E9519",
"A 	c #438818",
"B 	c #44891A",
"C 	c #4C8E27",
"D 	c #4E9624",
"E 	c #4D9418",
"F 	c #468C19",
"G 	c #509522",
"H 	c #4B991A",
"I 	c #49951A",
"J 	c #458B19",
"K 	c #448919",
"L 	c #448817",
"M 	c #64AB26",
"N 	c #6AB12A",
"O 	c #69B12A",
"P 	c #63AA26",
"Q 	c #569D1E",
"R 	c #4D951E",
"S 	c #4B9325",
"T 	c #499229",
"U 	c #4B932C",
"V 	c #589C33",
"W 	c #67A73B",
"X 	c #64A336",
"Y 	c #519425",
"Z 	c #458C27",
"` 	c #428C36",
" .	c #408A3B",
"..	c #40893A",
"+.	c #499233",
"@.	c #569D26",
"#.	c #599F22",
"$.	c #579B25",
"%.	c #549B1D",
"&.	c #62A928",
"*.	c #6FB733",
"=.	c #66AB2F",
"-.	c #4E9320",
";.	c #49961B",
">.	c #4A9520",
",.	c #499226",
"'.	c #499128",
").	c #4A9228",
"!.	c #4F9527",
"~.	c #5CA62E",
"{.	c #5CA321",
"].	c #579D1E",
"^.	c #4D941B",
"/.	c #4C9527",
"(.	c #529F36",
"_.	c #55A43F",
":.	c #57A643",
"<.	c #65B042",
"[.	c #75BC3D",
"}.	c #71B633",
"|.	c #5AA023",
"1.	c #4A911F",
"2.	c #42892A",
"3.	c #438A29",
"4.	c #519729",
"5.	c #63A92A",
"6.	c #6CB230",
"7.	c #70B336",
"8.	c #67AB30",
"9.	c #589F21",
"0.	c #559C1F",
"a.	c #589E25",
"b.	c #539723",
"c.	c #488D1C",
"d.	c #448B19",
"e.	c #478F1C",
"f.	c #4C972C",
"g.	c #519E39",
"h.	c #52A03C",
"i.	c #55A23C",
"j.	c #63AB3B",
"k.	c #519B19",
"l.	c #529A18",
"m.	c #51971D",
"n.	c #4F9224",
"o.	c #50962F",
"p.	c #54A13A",
"q.	c #57A843",
"r.	c #5CAE4A",
"s.	c #6AB947",
"t.	c #7AC53C",
"u.	c #75BD2E",
"v.	c #5EA621",
"w.	c #4E971F",
"x.	c #4B9326",
"y.	c #489129",
"z.	c #4A9229",
"A.	c #559C29",
"B.	c #6DB231",
"C.	c #71B537",
"D.	c #69AC31",
"E.	c #569C21",
"F.	c #4B9218",
"G.	c #498E1A",
"H.	c #468B1A",
"I.	c #458B1E",
"J.	c #4E9833",
"K.	c #56A643",
"L.	c #56A744",
"M.	c #57A53F",
"N.	c #67AE3F",
"O.	c #509B19",
"P.	c #519918",
"Q.	c #559A25",
"R.	c #5B9A33",
"S.	c #599835",
"T.	c #509630",
"U.	c #4F9C36",
"V.	c #57A743",
"W.	c #66B543",
"X.	c #74C037",
"Y.	c #70B92A",
"Z.	c #5CA420",
"`.	c #529C28",
" +	c #529F37",
".+	c #53A13C",
"++	c #539E34",
"@+	c #539A27",
"#+	c #569A24",
"$+	c #599C28",
"%+	c #549825",
"&+	c #4C911D",
"*+	c #4A9019",
"=+	c #4C9319",
"-+	c #458A1A",
";+	c #4F9A36",
">+	c #58A946",
",+	c #54A441",
"'+	c #4F9832",
")+	c #5D9E36",
"!+	c #519A27",
"~+	c #559F2A",
"{+	c #589E2F",
"]+	c #5D9C36",
"^+	c #4C8E25",
"/+	c #489028",
"(+	c #509D38",
"_+	c #5DA939",
":+	c #69B32F",
"<+	c #66AE24",
"[+	c #579E1E",
"}+	c #529C2D",
"|+	c #56A63F",
"1+	c #59AA47",
"2+	c #56A23F",
"3+	c #50952F",
"4+	c #4A8D22",
"5+	c #468A1D",
"6+	c #468C21",
"7+	c #499127",
"8+	c #529A26",
"9+	c #5AA221",
"0+	c #5AA120",
"a+	c #559A20",
"b+	c #4D921C",
"c+	c #478D1D",
"d+	c #4D9732",
"e+	c #54A340",
"f+	c #4F9C38",
"g+	c #488E25",
"h+	c #51902A",
"i+	c #56A637",
"j+	c #5AA93E",
"k+	c #59A93E",
"l+	c #57A339",
"m+	c #52962F",
"n+	c #478A1D",
"o+	c #458B1F",
"p+	c #499027",
"q+	c #519928",
"r+	c #59A122",
"s+	c #579E1D",
"t+	c #4D941C",
"u+	c #4E972D",
"v+	c #55A540",
"w+	c #5AAC49",
"x+	c #5BAE4B",
"y+	c #5DA847",
"z+	c #5D9D3D",
"A+	c #55932F",
"B+	c #498C22",
"C+	c #48912A",
"D+	c #529E38",
"E+	c #5FAA37",
"F+	c #6AB42D",
"G+	c #6EB629",
"H+	c #6AB229",
"I+	c #5EA424",
"J+	c #4B901E",
"K+	c #468E24",
"L+	c #4A932C",
"M+	c #489027",
"N+	c #458A1E",
"O+	c #488A1F",
"P+	c #56A738",
"Q+	c #59AA3F",
"R+	c #53A23A",
"S+	c #49922F",
"T+	c #428825",
"U+	c #44891E",
"V+	c #498E1C",
"W+	c #51961F",
"X+	c #579D20",
"Y+	c #59A020",
"Z+	c #549A1D",
"`+	c #4A8F1C",
" @	c #499129",
".@	c #57A644",
"+@	c #5DA545",
"@@	c #63A141",
"#@	c #5B9736",
"$@	c #4B8E25",
"%@	c #4B962F",
"&@	c #57A640",
"*@	c #61AE3D",
"=@	c #6DB52A",
"-@	c #5FA72B",
";@	c #4A902C",
">@	c #40872B",
",@	c #438929",
"'@	c #498F25",
")@	c #509421",
"!@	c #52961F",
"~@	c #4E9C32",
"{@	c #53A22B",
"]@	c #53A22C",
"^@	c #4E9B30",
"/@	c #448F36",
"(@	c #3F8732",
"_@	c #438924",
":@	c #52971F",
"<@	c #6BB329",
"[@	c #69B029",
"}@	c #5EA425",
"|@	c #4D921E",
"1@	c #458B20",
"2@	c #499028",
"3@	c #4C952F",
"4@	c #579937",
"5@	c #619E3E",
"6@	c #5C9836",
"7@	c #4C8E26",
"8@	c #4D972F",
"9@	c #57A740",
"0@	c #59A63B",
"a@	c #569E29",
"b@	c #599F1E",
"c@	c #5CA322",
"d@	c #539B32",
"e@	c #438D3F",
"f@	c #3C8740",
"g@	c #418A3A",
"h@	c #529933",
"i@	c #62A82C",
"j@	c #67AD29",
"k@	c #4C981A",
"l@	c #4E9D19",
"m@	c #4E9D1A",
"n@	c #4A9826",
"o@	c #438E34",
"p@	c #3F8833",
"q@	c #569B21",
"r@	c #6CB42A",
"s@	c #74BD2F",
"t@	c #70B92E",
"u@	c #64AA29",
"v@	c #4F941F",
"w@	c #4B8F1F",
"x@	c #559726",
"y@	c #569A26",
"z@	c #549823",
"A@	c #5B9D2D",
"B@	c #64A338",
"C@	c #61A134",
"D@	c #569A28",
"E@	c #539C2D",
"F@	c #55A239",
"G@	c #519C33",
"H@	c #4B9222",
"I@	c #4A9116",
"J@	c #4C9333",
"K@	c #4A8F44",
"L@	c #458D44",
"M@	c #47903C",
"N@	c #5DA436",
"O@	c #70B832",
"P@	c #70B82E",
"Q@	c #5AA620",
"R@	c #4D9C19",
"S@	c #4A971E",
"T@	c #458E25",
"U@	c #559A21",
"V@	c #71BA2E",
"W@	c #6FB82E",
"X@	c #63AA28",
"Y@	c #509520",
"Z@	c #579927",
"`@	c #6CAE35",
" #	c #6FB335",
".#	c #69AF2D",
"+#	c #68AE2D",
"@#	c #6BB032",
"##	c #6BB030",
"$#	c #67AD2C",
"%#	c #5DA42A",
"&#	c #509829",
"*#	c #4C9424",
"=#	c #4D951C",
"-#	c #4B9217",
";#	c #498F1C",
">#	c #519331",
",#	c #5A983F",
"'#	c #56973B",
")#	c #53992D",
"!#	c #67AF2E",
"~#	c #79C133",
"{#	c #6FB62E",
"]#	c #49941A",
"^#	c #4A971A",
"/#	c #48931A",
"(#	c #458C1A",
"_#	c #43881A",
":#	c #50941F",
"<#	c #5FA526",
"[#	c #66AD2A",
"}#	c #65AC29",
"|#	c #5BA125",
"1#	c #5C9F29",
"2#	c #74B937",
"3#	c #76BC37",
"4#	c #6BB12D",
"5#	c #6FB82D",
"6#	c #72BB2E",
"7#	c #70B92D",
"8#	c #64AB27",
"9#	c #50961D",
"0#	c #499018",
"a#	c #4F941D",
"b#	c #529525",
"c#	c #5C9C31",
"d#	c #65A439",
"e#	c #60A131",
"f#	c #589E21",
"g#	c #66AD25",
"h#	c #73BB2E",
"i#	c #67AD2A",
"j#	c #458D1A",
"k#	c #468E1A",
"l#	c #468D1A",
"m#	c #4F931F",
"n#	c #519620",
"o#	c #4C911E",
"p#	c #5A9F25",
"q#	c #70B730",
"r#	c #6DB42E",
"s#	c #5FA525",
"t#	c #6FB82C",
"u#	c #75BF2E",
"v#	c #74BD2E",
"w#	c #69B128",
"x#	c #569D1D",
"y#	c #4A901B",
"z#	c #549625",
"A#	c #61A12F",
"B#	c #69AA33",
"C#	c #6BAF32",
"D#	c #59A11D",
"E#	c #5EA622",
"F#	c #569C20",
"G#	c #59A126",
"H#	c #468F1A",
"I#	c #448A19",
"J#	c #438919",
"K#	c #488B20",
"L#	c #4D8E27",
"M#	c #478A1E",
"N#	c #478B1F",
"O#	c #4E8F27",
"P#	c #5A9D2E",
"Q#	c #65AC32",
"R#	c #5EA632",
"S#	c #4C932E",
"T#	c #52982E",
"U#	c #64AC31",
"V#	c #6CB633",
"W#	c #6DB835",
"X#	c #66B134",
"Y#	c #5AA530",
"Z#	c #539C2A",
"`#	c #529925",
" $	c #589B28",
".$	c #61A22F",
"+$	c #6AAD30",
"@$	c #6EB62D",
"#$	c #65AD26",
"$$	c #4D9518",
"%$	c #57A420",
"&$	c #4A981A",
"*$	c #5A9735",
"=$	c #579532",
"-$	c #4B8D24",
";$	c #5B9A3B",
">$	c #52983D",
",$	c #49923F",
"'$	c #418B40",
")$	c #448D3E",
"!$	c #4E9639",
"~$	c #57A13A",
"{$	c #5EAB3F",
"]$	c #5EAE43",
"^$	c #5BAC44",
"/$	c #5EAC3D",
"($	c #61AC31",
"_$	c #5CA228",
":$	c #559825",
"<$	c #61A628",
"[$	c #6FB72C",
"}$	c #65AD27",
"|$	c #4F951D",
"1$	c #478D1A",
"2$	c #468B19",
"3$	c #4C9C19",
"4$	c #4D991F",
"5$	c #4F9326",
"6$	c #4E8F25",
"7$	c #4A8E1E",
"8$	c #519326",
"9$	c #599831",
"0$	c #4B8E23",
"a$	c #4D8E26",
"b$	c #599634",
"c$	c #559439",
"d$	c #468C39",
"e$	c #3D8740",
"f$	c #3B8748",
"g$	c #3C8743",
"h$	c #3F8838",
"i$	c #4B9339",
"j$	c #58A242",
"k$	c #5DAB49",
"l$	c #5DB04C",
"m$	c #63B445",
"n$	c #68B435",
"o$	c #5EA627",
"p$	c #4D931F",
"q$	c #5A9E27",
"r$	c #6BB031",
"s$	c #62A72C",
"t$	c #4C901F",
"u$	c #488B21",
"v$	c #4E8F28",
"w$	c #4D9024",
"x$	c #4A971B",
"y$	c #4C9C1A",
"z$	c #4C9C1B",
"A$	c #529C27",
"B$	c #5B9B35",
"C$	c #5B9A34",
"D$	c #539825",
"E$	c #52981E",
"F$	c #569B24",
"G$	c #529723",
"H$	c #498E1E",
"I$	c #488B1F",
"J$	c #4A8D26",
"K$	c #448A28",
"L$	c #408838",
"M$	c #3D8847",
"N$	c #3E8842",
"O$	c #43892F",
"P$	c #509230",
"Q$	c #5E9E3E",
"R$	c #61A847",
"S$	c #5EAF4B",
"T$	c #68B436",
"U$	c #4D9220",
"V$	c #56962C",
"W$	c #5D9C32",
"X$	c #4C8F23",
"Y$	c #5C9936",
"Z$	c #59992F",
"`$	c #4D9B33",
" %	c #47962A",
".%	c #48962B",
"+%	c #509A33",
"@%	c #5DA03D",
"#%	c #5EA23D",
"$%	c #58A032",
"%%	c #58A229",
"&%	c #5DA523",
"*%	c #579C21",
"=%	c #4B901A",
"-%	c #468C17",
";%	c #49902E",
">%	c #4F9940",
",%	c #539C3C",
"'%	c #549A2B",
")%	c #58992A",
"!%	c #5C9A35",
"~%	c #5B9E3D",
"{%	c #58A441",
"]%	c #5AA83F",
"^%	c #5EA838",
"/%	c #57A02C",
"(%	c #4E9321",
"_%	c #519229",
":%	c #5A9734",
"<%	c #5A9930",
"[%	c #569927",
"}%	c #599A2D",
"|%	c #5C9935",
"1%	c #57982E",
"2%	c #428C35",
"3%	c #408C3A",
"4%	c #418D3B",
"5%	c #49953E",
"6%	c #56A142",
"7%	c #5AA743",
"8%	c #58A63F",
"9%	c #5FAC39",
"0%	c #6AB42F",
"a%	c #60A726",
"b%	c #549B1E",
"c%	c #4B9119",
"d%	c #478D1B",
"e%	c #64AF32",
"f%	c #69B433",
"g%	c #67AF2D",
"h%	c #5FA328",
"i%	c #529427",
"j%	c #4C9028",
"k%	c #4B922B",
"l%	c #4A9334",
"m%	c #4A943A",
"n%	c #4C9533",
"o%	c #4E9622",
"p%	c #4E931E",
"q%	c #4F9125",
"r%	c #599D29",
"s%	c #5EA229",
"t%	c #519327",
"u%	c #448C32",
"v%	c #3E8738",
"w%	c #47933D",
"x%	c #54A445",
"y%	c #57A845",
"z%	c #54A33F",
"A%	c #5AA537",
"B%	c #65AE2E",
"C%	c #65AC28",
"D%	c #5FA72A",
"E%	c #58A22C",
"F%	c #519B2C",
"G%	c #4E972C",
"H%	c #569F2B",
"I%	c #63AD29",
"J%	c #67B029",
"K%	c #64AB28",
"L%	c #5BA124",
"M%	c #4E941C",
"N%	c #488E1A",
"O%	c #458B28",
"P%	c #418934",
"Q%	c #448D2F",
"R%	c #4B9220",
"S%	c #4C9421",
"T%	c #4C952A",
"U%	c #579F2C",
"V%	c #60A729",
"W%	c #599E23",
"X%	c #498E1D",
"Y%	c #468D23",
"Z%	c #448A23",
"`%	c #438926",
" &	c #448A26",
".&	c #4C9634",
"+&	c #57A745",
"@&	c #57A744",
"#&	c #4E9933",
"$&	c #4C9225",
"%&	c #509521",
"&&	c #519621",
"*&	c #529A2C",
"=&	c #55A23A",
"-&	c #56A53F",
";&	c #55A33E",
">&	c #539F36",
",&	c #529927",
"'&	c #50951F",
")&	c #50951E",
"!&	c #4F961A",
"~&	c #4F9718",
"{&	c #4F9619",
"]&	c #4B911F",
"^&	c #458B24",
"/&	c #448A21",
"(&	c #488E1F",
"_&	c #529F3A",
":&	c #509625",
"<&	c #4A8F1B",
"[&	c #468C1D",
"}&	c #4B942D",
"|&	c #599E21",
"1&	c #599E22",
"2&	c #5CA530",
"3&	c #60AE3F",
"4&	c #5BA83D",
"5&	c #4C9428",
"6&	c #448917",
"7&	c #478C17",
"8&	c #4B8E1E",
"9&	c #4F9028",
"0&	c #509534",
"a&	c #509C3E",
"b&	c #51A043",
"c&	c #4D9939",
"d&	c #478E26",
"e&	c #498D1E",
"f&	c #519324",
"g&	c #529522",
"h&	c #4F951C",
"i&	c #509719",
"j&	c #519919",
"k&	c #4E9518",
"l&	c #4A9119",
"m&	c #519520",
"n&	c #5A9D2A",
"o&	c #5AA333",
"p&	c #55A338",
"q&	c #4E9A31",
"r&	c #468D20",
"s&	c #438717",
"t&	c #448A1C",
"u&	c #4A932B",
"v&	c #6EB62A",
"w&	c #6CB62F",
"x&	c #69B534",
"y&	c #5FA931",
"z&	c #4E9524",
"A&	c #559928",
"B&	c #5D9B36",
"C&	c #59983B",
"D&	c #4C933C",
"E&	c #46913E",
"F&	c #469240",
"G&	c #458F38",
"H&	c #458B26",
"I&	c #529324",
"J&	c #5F9F2E",
"K&	c #5C9C2B",
"L&	c #4E911F",
"M&	c #4B9219",
"N&	c #509819",
"O&	c #52991C",
"P&	c #62A62B",
"Q&	c #70B337",
"R&	c #69B035",
"S&	c #55A22A",
"T&	c #499622",
"U&	c #458C1C",
"V&	c #458A1B",
"W&	c #61A826",
"X&	c #69B129",
"Y&	c #62AA29",
"Z&	c #5BA32A",
"`&	c #519B2D",
" *	c #4F9A2F",
".*	c #559F31",
"+*	c #5DA335",
"@*	c #65A63A",
"#*	c #63A43A",
"$*	c #589D37",
"%*	c #4D953C",
"&*	c #438E42",
"**	c #448A27",
"=*	c #509223",
"-*	c #5C9C2C",
";*	c #589829",
">*	c #4A8D1E",
",*	c #488F18",
"'*	c #51981A",
")*	c #5AA121",
"!*	c #63A82A",
"~*	c #6AAE31",
"{*	c #6EB135",
"]*	c #64AB2E",
"^*	c #529F1F",
"/*	c #479318",
"(*	c #4C901D",
"_*	c #579C27",
":*	c #4F9420",
"<*	c #50992B",
"[*	c #54A239",
"}*	c #58A841",
"|*	c #5CAA45",
"1*	c #63AE41",
"2*	c #6BB238",
"3*	c #6DB331",
"4*	c #68AF31",
"5*	c #5CA33A",
"6*	c #479145",
"7*	c #3E883E",
"8*	c #438928",
"9*	c #488C1C",
"0*	c #4D9020",
"a*	c #4B8E20",
"b*	c #478B1D",
"c*	c #498F19",
"d*	c #51981B",
"e*	c #6CAE34",
"f*	c #5A9D29",
"g*	c #509820",
"h*	c #4D9A1B",
"i*	c #48941A",
"j*	c #488E1D",
"k*	c #569B23",
"l*	c #64AB29",
"m*	c #5A9F24",
"n*	c #418718",
"o*	c #428719",
"p*	c #46891F",
"q*	c #4E8E28",
"r*	c #529630",
"s*	c #539F38",
"t*	c #57A642",
"u*	c #5DAC4A",
"v*	c #6AB647",
"w*	c #76C03B",
"x*	c #76BF2F",
"y*	c #6BB32A",
"z*	c #5BA331",
"A*	c #48903C",
"B*	c #3F8736",
"C*	c #438824",
"D*	c #539720",
"E*	c #559826",
"F*	c #53932A",
"G*	c #509226",
"H*	c #5DA128",
"I*	c #69AC33",
"J*	c #61A32E",
"K*	c #448C18",
"L*	c #48941B",
"M*	c #4B9727",
"N*	c #4E9931",
"O*	c #57A02F",
"P*	c #62A82B",
"Q*	c #69AD2E",
"R*	c #468B1B",
"S*	c #4F9027",
"T*	c #5B9836",
"U*	c #5B9936",
"V*	c #4F942D",
"W*	c #4F9935",
"X*	c #5BA846",
"Y*	c #6EBB48",
"Z*	c #80CB3E",
"`*	c #7CC533",
" =	c #65AC26",
".=	c #519822",
"+=	c #478D26",
"@=	c #66A932",
"#=	c #619F38",
"$=	c #579632",
"%=	c #4C8F22",
"&=	c #529523",
"*=	c #4F9322",
"==	c #478C1C",
"-=	c #448A18",
";=	c #468E1D",
">=	c #4E9A33",
",=	c #55A541",
"'=	c #54A03A",
")=	c #519728",
"!=	c #5A9B2E",
"~=	c #5AA227",
"{=	c #5EA32A",
"]=	c #5EA42A",
"^=	c #62A630",
"/=	c #67A838",
"(=	c #61A133",
"_=	c #4F9124",
":=	c #499029",
"<=	c #539D3A",
"[=	c #65AF3D",
"}=	c #76BF37",
"|=	c #74BA31",
"1=	c #62A62D",
"2=	c #539526",
"3=	c #478E24",
"4=	c #4D9730",
"5=	c #5BA235",
"6=	c #67AC36",
"7=	c #68A937",
"8=	c #5F9D36",
"9=	c #53922E",
"0=	c #498C20",
"a=	c #4E931D",
"b=	c #5A9F23",
"c=	c #5CA124",
"d=	c #579C22",
"e=	c #488D1D",
"f=	c #4E982F",
"g=	c #56A43C",
"h=	c #509C34",
"i=	c #478D23",
"j=	c #4E8E29",
"k=	c #6DB432",
"l=	c #77C038",
"m=	c #75BC37",
"n=	c #6FB534",
"o=	c #63A82D",
"p=	c #4F9421",
"q=	c #458A1F",
"r=	c #488F25",
"s=	c #529826",
"t=	c #5DA325",
"u=	c #62A037",
"v=	c #599732",
"w=	c #4B8E24",
"x=	c #4B952F",
"y=	c #56A542",
"z=	c #5FA945",
"A=	c #65A540",
"B=	c #51922A",
"C=	c #478B20",
"D=	c #488C1E",
"E=	c #5BA025",
"F=	c #6FB62D",
"G=	c #71B92F",
"H=	c #69B02C",
"I=	c #5BA026",
"J=	c #4B901F",
"K=	c #4A9222",
"L=	c #488C1F",
"M=	c #71B933",
"N=	c #7DC839",
"O=	c #7CC739",
"P=	c #76C038",
"Q=	c #68B037",
"R=	c #59A030",
"S=	c #4B9123",
"T=	c #4C911B",
"U=	c #589F20",
"V=	c #5DA12A",
"W=	c #488C22",
"X=	c #4C9731",
"Y=	c #58A845",
"Z=	c #60AB49",
"`=	c #63A243",
" -	c #468E22",
".-	c #4D972D",
"+-	c #5CA42F",
"@-	c #6AB02E",
"#-	c #6BB131",
"$-	c #63AA35",
"%-	c #569D33",
"&-	c #478E2E",
"*-	c #448C2A",
"=-	c #559A23",
"--	c #569C22",
";-	c #73BF30",
">-	c #76C230",
",-	c #75C131",
"'-	c #6BB635",
")-	c #569F3A",
"!-	c #478F36",
"~-	c #458A26",
"{-	c #63A929",
"]-	c #549726",
"^-	c #4A8D21",
"/-	c #56A440",
"(-	c #5EA745",
"_-	c #63A241",
":-	c #4B952C",
"<-	c #54A23A",
"[-	c #56A136",
"}-	c #549A28",
"|-	c #51962D",
"1-	c #4C953A",
"2-	c #46903E",
"3-	c #418A3D",
"4-	c #468E35",
"5-	c #579E31",
"6-	c #67AE2D",
"7-	c #6BB22C",
"8-	c #69B529",
"9-	c #67B527",
"0-	c #67B427",
"a-	c #5EA92C",
"b-	c #4B9433",
"c-	c #3F8730",
"d-	c #428822",
"e-	c #61A727",
"f-	c #6BB32C",
"g-	c #69B02B",
"h-	c #5A9E26",
"i-	c #5DA02B",
"j-	c #5AA032",
"k-	c #559F37",
"l-	c #5BA33A",
"m-	c #65A73A",
"n-	c #5E9E31",
"o-	c #519D35",
"p-	c #509B30",
"q-	c #4C9222",
"r-	c #499026",
"s-	c #479134",
"t-	c #448E3E",
"u-	c #428C44",
"v-	c #499140",
"w-	c #559C38",
"x-	c #78C135",
"y-	c #79C233",
"    . + @ # $ % & * = - ; > , ' ) ! ~ { ] ^ / ( _ : < [ } | 1 2 3 4 ",
"      5 6 7 8 9 0 a b c d e f g h i j k l m n o p q r s t u 1 v w x ",
"y     5 6 z 8 A B a b c C e f g h i D E F m n o p q G s H I J v K L ",
"M N O P Q R S T U V W X Y Z `  ...+.@.#.$.3 %.&.*.=.-.[ ;.>.,.'.).!.",
"~.{.{.].^./.(._.:.<.[.}.|.1.Z 2.3.4.5.6.7.8.9.0.a.b.c.d.e.f.g.h.i.j.",
"k.l.l.m.n.o.p.q.r.s.t.u.v.w.x.y.z.A.5.B.C.D.E.F.G.H.B A I.J.K.L.M.N.",
"O.P.l.Q.R.S.T.U.V.W.X.Y.Z.`. +.+.+++@+#+$+%+&+*+=+*+-+A I.;+>+,+'+)+",
"!+~+~+{+]+= ^+/+(+_+:+<+[+}+|+1+1+2+3+4+5+6+7+8+9+0+a+b+c+d+e+f+g+h+",
"i+j+k+l+m+^+n+o+p+q+r+s+t+u+v+w+x+y+z+A+B+C+D+E+F+G+H+I+J+K+L+M+N+O+",
"P+Q+Q+R+S+T+U+V+W+X+Y+Z+`+ @(+,+.@+@@@#@$@%@&@*@:+G+=@-@;@>@,@'@)@!@",
"~@{@]@^@/@(@_@:@M <@[@}@|@1@2@L+3@4@5@6@7@8@9@0@a@b@c@d@e@f@g@h@i@j@",
"k@l@m@n@o@p@_@q@r@s@t@u@v@w@x@y@z@A@B@C@D@E@F@G@H@I@t+J@K@L@M@N@O@P@",
"Q@R@R@S@T@T+U+U@y V@W@X@Y@Z@`@ #.#+#@###$#%#&#*#=#-#;#>#,#'#)#!#~#{#",
"]#^#^#/#(#_#B :#<#[#}#|#|@1#2#3#4#N 5#6#7#8#9#0#k a#b#c#d#e#f#g#h#i#",
"j#k#k#l#-+K B c.m#n#n#o#c.p#q#r#|#s#t#u#v#w#x#F.y#z#A#B#C#5.[+D#E#F#",
"G#H#H#l#I#J#B K#L#^+M#N#O#P#Q#R#S#T#U#V#W#X#Y#Z#`# $.$+$@$#$%.$$E *+",
"%$&$&$]#l#B B O#*$=$-$O#*$;$>$,$'$)$!$~${$]$^$/$($_$:$<$[$}$|$F 1$2$",
"3$3$3$4$5$6$7$8$R.9$0$a$b$c$d$e$f$g$h$i$j$k$l$m$n$o$p$q$r$s$t$u$v$w$",
"x$y$z$A$B$C$D$E$F$G$H$I$^+J$K$L$M$N$O$P$Q$R$S$m$T$o$U$V$B@W$X$a Y$Z$",
"`$ %.%+%@%#%$%%%&%{.*%W+=%-%-+;%>%,%'%)%!%~%{%]%^%/%(%_%:%<%[%}%|%1%",
"2%3%4%5%6%7%8%9%0%=@y a%b%c%d%@+e%f%g%h%i%j%k%l%m%n%o%p%q%r%5.s%t%4+",
"u%v%v%w%x%y%z%A%B%5 C%D%E%F%G%H%I%J%K%L%M%m N%O%P%Q%R%S%T%U%V%W%X%Y%",
"Z%`% &.&+&@&#&$&%&W+&&*&=&-&;&>&,&W+'&)&!&~&{&]&^&/&(&u+_&++:&<&[&}&",
"s#|&1&2&3&4&5&6&7&8&9&0&a&b&b&c&d&e&f&g&h&i&j&k&l&m&n&o&p&q&r&s&t&u&",
"u#v&v&w&x&y&z&1$^.A&B&C&D&E&F&G&H&I&J&K&L&M&N&P.O&P&Q&R&S&T&U&K V&r&",
"W&X&X&. Y&Z&`& *.*+*@*#*$*%*&* .**=*-*;*>*,*'*)*!*~*{*]*^*/*F (*4 q@",
"_*W+W+'&:*<*[*}*|*1*2*3*4*5*6*7*8*9*0*a*b*c*d*!*C.e*f*g*h*i*j*k*l*y ",
"m*n*o*p*q*r*s*t*u*v*w*x*y*z*A*B*C*<&D*E*F*G*'&H*I*J*w@K*L*M*N*O*P*Q*",
"V&V&R*S*T*U*V*W*X*Y*Z*`* =.=+=T+o+3 5.@=#=$=%=o#&=*===-=;=>=,='=)=!=",
"~={=]=^=/=(=_=:=<=[=}=|=1=2=e&3=4=5=6=7=8=9=0=a=b=c=d=a#e=f=g=h=i=j=",
"k=l=l=m=n=o=p=q=r=s=t=1=u=v=w=x=y=z=A=8=B=C=D=E=F=G=H=I=J=K=!+D e=L=",
"M=N=O=P=Q=R=S=9 A T=U=V=R.9=W=X=Y=Z=`=#@-$ -.-+-@-#-$-%-&-*-).:&=---",
";->-,-'-)-!-~-K H.4 K%{-]-^-L=8@/-(-_-6@^+:-<-[-}-|-1-2-3-..4-5-6-7-",
"8-9-0-a-b-c-d-`+4 e-f-g-t=h-i-j-k-l-m-n-X$T o-p-q-r-s-t-u-v-w-R&x-y-"};
