/* XPM */
static char * space_floor_xpm[] = {
"48 48 29 1",
" 	c #BC6443",
".	c #BB6444",
"+	c #BE6545",
"@	c #BD6544",
"#	c #BC6444",
"$	c #C06645",
"%	c #BB6343",
"&	c #BC6544",
"*	c #BA6343",
"=	c #B76242",
"-	c #B96343",
";	c #BA6243",
">	c #B86243",
",	c #BA6342",
"'	c #B66141",
")	c #BD6545",
"!	c #B76141",
"~	c #BC6343",
"{	c #BB6443",
"]	c #B86343",
"^	c #BA6444",
"/	c #BA6344",
"(	c #BF6645",
"_	c #BF6545",
":	c #BC6545",
"<	c #BE6645",
"[	c #B56142",
"}	c #BD6341",
"|	c #BD6342",
" ...+@.................  ...+@................. ",
" ..#$+#................  ..#$+#................ ",
"%...&#..........*=-....%%...&#..........*=-....%",
";...............*>*....,;...............*>*....,",
"'......................''......................'",
"'.................)+#..''.................)+#..'",
"!................#++#..!!................#++#..!",
"%.................##...%%.................##...%",
"~.--......**...#...#...{~.--......**...#...#...{",
" .]=^.....->...###.....  .]=^.....->...###..... ",
" .^/......^/..#+(()###.  .^/......^/..#+(()###. ",
" .............#+(()#...  .............#+(()#... ",
" .............#_(()#...  .............#_(()#... ",
" ..............:))#....  ..............:))#.... ",
" ............./........  ............./........ ",
" ............/>/.......  ............/>/....... ",
" ....))&...../-........  ....))&...../-........ ",
" ....)_&............##.  ....)_&............##. ",
" .....##...........#(+.  .....##...........#(+. ",
" .@)...............#+).  .@)...............#+). ",
" .<$#...............##.  .<$#...............##. ",
" .&)#...%>*............  .&)#...%>*............ ",
" .......*[>^...........  .......*[>^........... ",
"}|       ~           ||}}|       ~           ||}",
" ...+@.................  ...+@................. ",
" ..#$+#................  ..#$+#................ ",
"%...&#..........*=-....%%...&#..........*=-....%",
";...............*>*....,;...............*>*....,",
"'......................''......................'",
"'.................)+#..''.................)+#..'",
"!................#++#..!!................#++#..!",
"%.................##...%%.................##...%",
"~.--......**...#...#...{~.--......**...#...#...{",
" .]=^.....->...###.....  .]=^.....->...###..... ",
" .^/......^/..#+(()###.  .^/......^/..#+(()###. ",
" .............#+(()#...  .............#+(()#... ",
" .............#_(()#...  .............#_(()#... ",
" ..............:))#....  ..............:))#.... ",
" ............./........  ............./........ ",
" ............/>/.......  ............/>/....... ",
" ....))&...../-........  ....))&...../-........ ",
" ....)_&............##.  ....)_&............##. ",
" .....##...........#(+.  .....##...........#(+. ",
" .@)...............#+).  .@)...............#+). ",
" .<$#...............##.  .<$#...............##. ",
" .&)#...%>*............  .&)#...%>*............ ",
" .......*[>^...........  .......*[>^........... ",
"}|       ~           ||}}|       ~           ||}"};
