/* XPM */
static char * ufo _xpm[] = {
"48 48 630 2",
"  	c #BD6545",
". 	c #BD6443",
"+ 	c #BD6546",
"@ 	c #BB6B4D",
"# 	c #B47B66",
"$ 	c #AA948C",
"% 	c #9EB6C0",
"& 	c #9EBBC7",
"* 	c #9FBCC8",
"= 	c #A0BCC8",
"- 	c #9CBCC9",
"; 	c #AA968E",
"> 	c #BA6B4E",
", 	c #BD6444",
"' 	c #BC6748",
") 	c #B47A65",
"! 	c #A79C98",
"~ 	c #A3AEB3",
"{ 	c #A5BAC3",
"] 	c #ABC6D1",
"^ 	c #B2CAD3",
"/ 	c #B9CED7",
"( 	c #BED2DA",
"_ 	c #C0D3DB",
": 	c #B2C9D3",
"< 	c #ADBEC6",
"[ 	c #A8B2B7",
"} 	c #A3ACB0",
"| 	c #AD8E84",
"1 	c #B57862",
"2 	c #B08474",
"3 	c #A3A9AC",
"4 	c #A4BBC5",
"5 	c #AEC8D3",
"6 	c #BED3DC",
"7 	c #C9DBE2",
"8 	c #CFDEE5",
"9 	c #D3E1E7",
"0 	c #D4E2E7",
"a 	c #D4E1E7",
"b 	c #D4E2E8",
"c 	c #D2E1E7",
"d 	c #CFDFE5",
"e 	c #BCD1DB",
"f 	c #A3BAC4",
"g 	c #AD9086",
"h 	c #BD6544",
"i 	c #B7735A",
"j 	c #AB948D",
"k 	c #A2C1CD",
"l 	c #B4CCD6",
"m 	c #C8D9E1",
"n 	c #D1E0E6",
"o 	c #D2E0E6",
"p 	c #C5D7DF",
"q 	c #D1DFE6",
"r 	c #C5D8DF",
"s 	c #B2CBD5",
"t 	c #A2BBC5",
"u 	c #AC8F86",
"v 	c #B96E53",
"w 	c #BD6647",
"x 	c #AF887A",
"y 	c #9FBAC4",
"z 	c #AEC7D2",
"A 	c #C7D8E0",
"B 	c #CADAE2",
"C 	c #A3BFCA",
"D 	c #A7C2CD",
"E 	c #CCDCE3",
"F 	c #C4D6DF",
"G 	c #ACC6D1",
"H 	c #A2AFB4",
"I 	c #B18271",
"J 	c #BD6646",
"K 	c #BB694A",
"L 	c #AC8F85",
"M 	c #A4BDC8",
"N 	c #BBD0D9",
"O 	c #D0DFE5",
"P 	c #B4CBD4",
"Q 	c #CEDEE4",
"R 	c #B7CED8",
"S 	c #A2BCC7",
"T 	c #AE8B80",
"U 	c #BC6647",
"V 	c #A99892",
"W 	c #A8C4CF",
"X 	c #C4D6DE",
"Y 	c #DDE8EC",
"Z 	c #E5EDF0",
"` 	c #D9E5EA",
" .	c #D3E1E8",
"..	c #D4E1E8",
"+.	c #E4EDF0",
"@.	c #DBE6EB",
"#.	c #D2E0E7",
"$.	c #C0D4DC",
"%.	c #A6BFCA",
"&.	c #AD8D83",
"*.	c #A8BFCA",
"=.	c #EFF4F5",
"-.	c #D4E1E9",
";.	c #D5E2EA",
">.	c #CEDFDF",
",.	c #CBDDD9",
"'.	c #CBDEDA",
").	c #CCDFDA",
"!.	c #CFE0DF",
"~.	c #DFE9ED",
"{.	c #E3ECEF",
"].	c #C4D7DF",
"^.	c #A5BEC9",
"/.	c #AE8B7F",
"(.	c #AE8C80",
"_.	c #D8E5EA",
":.	c #DCE7EB",
"<.	c #D6E3E9",
"[.	c #D4E2E9",
"}.	c #D1E0E3",
"|.	c #C2D9CB",
"1.	c #A7CEA0",
"2.	c #90C47B",
"3.	c #83BF66",
"4.	c #7CBC5A",
"5.	c #7DBC5B",
"6.	c #86CA61",
"7.	c #8ACF63",
"8.	c #90D06E",
"9.	c #9AD381",
"0.	c #AFD8A7",
"a.	c #C5DECE",
"b.	c #D1E1E4",
"c.	c #D7E3E9",
"d.	c #DDE7EC",
"e.	c #D8E4E9",
"f.	c #C1D4DC",
"g.	c #A3BDC8",
"h.	c #B08576",
"i.	c #C1D4DD",
"j.	c #D0DFE2",
"k.	c #B4D4B5",
"l.	c #8CC375",
"m.	c #6FB644",
"n.	c #62B02F",
"o.	c #5DAE28",
"p.	c #5EAE29",
"q.	c #5EAF29",
"r.	c #6BC131",
"s.	c #70C935",
"t.	c #70C934",
"u.	c #6FC934",
"v.	c #74CA3C",
"w.	c #7ECC4F",
"x.	c #99D37F",
"y.	c #BBDBBC",
"z.	c #D1E0E4",
"A.	c #BDD1DA",
"B.	c #A1BCC7",
"C.	c #B2806E",
"D.	c #9FB9C4",
"E.	c #B9CED8",
"F.	c #C2DACC",
"G.	c #8EC377",
"H.	c #66B237",
"I.	c #5EAF2A",
"J.	c #5FAF2B",
"K.	c #6CC233",
"L.	c #71C937",
"M.	c #70C936",
"N.	c #79CB45",
"O.	c #9CD485",
"P.	c #C7DED2",
"Q.	c #B5CDD7",
"R.	c #A6A5A7",
"S.	c #A79E9C",
"T.	c #ACC7D2",
"U.	c #CFDEE4",
"V.	c #D3E1E6",
"W.	c #B1D2B0",
"X.	c #74B84D",
"Y.	c #71C936",
"Z.	c #88CE60",
"`.	c #BDDBBF",
" +	c #CDDDE4",
".+	c #ACC1CB",
"++	c #AE8A7E",
"@+	c #B27F6D",
"#+	c #A3BBC5",
"$+	c #B2D4B0",
"%+	c #6BB43F",
"&+	c #5DAE29",
"*+	c #84BF68",
"=+	c #93C57F",
"-+	c #96C884",
";+	c #9DD188",
">+	c #9DD486",
",+	c #92D172",
"'+	c #82CD55",
")+	c #80CB53",
"!+	c #BBD9BF",
"~+	c #C2D6DF",
"{+	c #A5B2B8",
"]+	c #B87156",
"^+	c #B2CBD6",
"/+	c #C9DAE1",
"(+	c #BDDCBF",
"_+	c #7FCA51",
":+	c #63B72D",
"<+	c #61B02F",
"[+	c #82BE63",
"}+	c #ADD1A9",
"|+	c #C7DDD3",
"1+	c #D3E2E6",
"2+	c #D5E2E9",
"3+	c #D3E3E6",
"4+	c #C8DFD3",
"5+	c #B1D9AB",
"6+	c #8CD069",
"7+	c #70C836",
"8+	c #66BA2E",
"9+	c #78BA53",
"0+	c #BFD8C6",
"a+	c #CADAE1",
"b+	c #B1CAD4",
"c+	c #B57A64",
"d+	c #C7D9E0",
"e+	c #AEC7D1",
"f+	c #70C736",
"g+	c #65B72F",
"h+	c #6EB542",
"i+	c #A4CC9A",
"j+	c #CDDFDD",
"k+	c #D3E0E8",
"l+	c #C0C9D3",
"m+	c #A7ACB9",
"n+	c #9293A2",
"o+	c #8F8F9E",
"p+	c #A8ADB9",
"q+	c #C1CAD4",
"r+	c #CDE1DC",
"s+	c #A6D697",
"t+	c #79CB46",
"u+	c #70C835",
"v+	c #68BD31",
"w+	c #5FB02B",
"x+	c #7FBD60",
"y+	c #C8DCD5",
"z+	c #9DBAC6",
"A+	c #B57863",
"B+	c #A79C99",
"C+	c #AFC9D3",
"D+	c #C6D8E0",
"E+	c #CEDDE4",
"F+	c #D2E1E5",
"G+	c #9ED489",
"H+	c #6EC634",
"I+	c #74BD49",
"J+	c #B4D4B6",
"K+	c #BDC6D0",
"L+	c #868494",
"M+	c #5E536A",
"N+	c #4C3E57",
"O+	c #4A3C55",
"P+	c #4D3F58",
"Q+	c #5F556B",
"R+	c #898898",
"S+	c #C0CAD3",
"T+	c #D3E2E7",
"U+	c #B2D9AD",
"V+	c #75C146",
"W+	c #5FB02A",
"X+	c #60AF2C",
"Y+	c #96C785",
"Z+	c #AC8E84",
"`+	c #BA6E52",
" @	c #A2B1B8",
".@	c #BFD3DC",
"+@	c #7ACB47",
"@@	c #7ACB48",
"#@	c #B3D9AF",
"$@	c #A5AAB6",
"%@	c #61586E",
"&@	c #493B54",
"*@	c #493A53",
"=@	c #645B70",
"-@	c #AFB5C0",
";@	c #ACD0A8",
">@	c #68B33A",
",@	c #6AB43D",
"'@	c #B9D6BD",
")@	c #A4ACB0",
"!@	c #BB6A4D",
"~@	c #B08575",
"{@	c #A4BFCB",
"]@	c #CADBE2",
"^@	c #D0E0E2",
"/@	c #97D27C",
"(@	c #73C93B",
"_@	c #D4E3E8",
":@	c #B4BCC6",
"<@	c #5D5269",
"[@	c #483A53",
"}@	c #4D3F59",
"|@	c #4A3B55",
"1@	c #B7BFC9",
"2@	c #99C88A",
"3@	c #60AF2D",
"4@	c #8DC375",
"5@	c #B47C68",
"6@	c #AC9086",
"7@	c #ADC7D2",
"8@	c #C4DDCC",
"9@	c #7CCC4B",
"0@	c #8DD069",
"a@	c #CDE0DC",
"b@	c #C4CED7",
"c@	c #6B6478",
"d@	c #4E405B",
"e@	c #574865",
"f@	c #584967",
"g@	c #564764",
"h@	c #4D3E59",
"i@	c #726C7F",
"j@	c #C8D3DC",
"k@	c #C8DDD5",
"l@	c #78B953",
"m@	c #6CB540",
"n@	c #C1D9C9",
"o@	c #AC928A",
"p@	c #D4E1EA",
"q@	c #ADD8A3",
"r@	c #B3D9AE",
"s@	c #D3E0E9",
"t@	c #8A8999",
"u@	c #4B3D56",
"v@	c #554662",
"w@	c #594A68",
"x@	c #544562",
"y@	c #9698A6",
"z@	c #A4CC9B",
"A@	c #60B02D",
"B@	c #61B02E",
"C@	c #A5CD9C",
"D@	c #AB958E",
"E@	c #AD938B",
"F@	c #99D37E",
"G@	c #83CD57",
"H@	c #CAE0D5",
"I@	c #C0CAD4",
"J@	c #5E556B",
"K@	c #493A54",
"L@	c #554763",
"M@	c #554663",
"N@	c #686075",
"O@	c #C1DACA",
"P@	c #6EB543",
"Q@	c #D2E1E6",
"R@	c #A1B5BD",
"S@	c #AF948B",
"T@	c #C1D5DE",
"U@	c #CDDFDC",
"V@	c #8CD067",
"W@	c #95D278",
"X@	c #A3A7B4",
"Y@	c #50425D",
"Z@	c #50445C",
"`@	c #B1B7C3",
" #	c #D0E1E1",
".#	c #80BD60",
"+#	c #7FBD5E",
"@#	c #CCDEDB",
"##	c #B0958C",
"$#	c #C5D8E0",
"%#	c #D7E4E9",
"&#	c #C9DFD5",
"*#	c #83CE58",
"=#	c #71C938",
"-#	c #A3D592",
";#	c #8B8A9A",
">#	c #4A3C56",
",#	c #4F415C",
"'#	c #52445F",
")#	c #4F415B",
"!#	c #9B9DAB",
"~#	c #D5E3E9",
"{#	c #8DC376",
"]#	c #73B74C",
"^#	c #C7DCD3",
"/#	c #D6E3E8",
"(#	c #A1BDC9",
"_#	c #EBF1F3",
":#	c #7ECA51",
"<#	c #6EC534",
"[#	c #6EC535",
"}#	c #70C638",
"|#	c #A9D59D",
"1#	c #7F7C8D",
"2#	c #97C884",
"3#	c #61B32C",
"4#	c #62B32D",
"5#	c #61B22B",
"6#	c #73BA4A",
"7#	c #C6DBD1",
"8#	c #EAF1F3",
"9#	c #DAE6EA",
"0#	c #C6DCD1",
"a#	c #63B32F",
"b#	c #A4CE99",
"c#	c #9DD288",
"d#	c #E4ECEF",
"e#	c #A1BECA",
"f#	c #D5E2E8",
"g#	c #76B950",
"h#	c #99C889",
"i#	c #9B9EAB",
"j#	c #97D27B",
"k#	c #84CE5A",
"l#	c #C9DFD6",
"m#	c #C4D7DE",
"n#	c #A4B5BC",
"o#	c #AE948B",
"p#	c #BED4DC",
"q#	c #CDDEDD",
"r#	c #80BD61",
"s#	c #8AC271",
"t#	c #A3A7B3",
"u#	c #4B3E56",
"v#	c #50435B",
"w#	c #B0B7C2",
"x#	c #D1E2E2",
"y#	c #8CD068",
"z#	c #8DD06A",
"A#	c #CEE0DD",
"B#	c #BFD4DD",
"C#	c #AE958D",
"D#	c #AD938A",
"E#	c #BAD0DA",
"F#	c #8EC378",
"G#	c #76B951",
"H#	c #C9DED6",
"I#	c #BFC8D2",
"J#	c #675F74",
"K#	c #C7D2DB",
"L#	c #C4DECB",
"M#	c #7DCC4D",
"N#	c #BAD1DA",
"O#	c #B3CBD6",
"P#	c #A4CD9C",
"Q#	c #63B131",
"R#	c #ADD1AA",
"S#	c #888797",
"T#	c #A9D79B",
"U#	c #72C939",
"V#	c #73CA3B",
"W#	c #AED8A5",
"X#	c #AC9187",
"Y#	c #BFD8C7",
"Z#	c #6CB43F",
"`#	c #6F697D",
" $	c #C9DFD4",
".$	c #85CE5B",
"+$	c #B37D6A",
"@$	c #8AC171",
"#$	c #62B030",
"$$	c #A0CB95",
"%$	c #AEB5C0",
"&$	c #645C71",
"*$	c #B7BFCA",
"=$	c #D2E2E5",
"-$	c #9FD48A",
";$	c #72C938",
">$	c #B47B67",
",$	c #BB6B4E",
"'$	c #A4ADB1",
")$	c #BDD2DB",
"!$	c #AED1AB",
"~$	c #BCC5CF",
"{$	c #736D81",
"]$	c #BDC6CF",
"^$	c #ABD7A0",
"/$	c #77CA41",
"($	c #7BCB49",
"_$	c #BEDCC1",
":$	c #C8D9E0",
"<$	c #CDDCE4",
"[$	c #91C47B",
"}$	c #73C142",
"|$	c #ACD7A2",
"1$	c #9496A4",
"2$	c #655D72",
"3$	c #4D4059",
"4$	c #A6CE9E",
"5$	c #72C240",
"6$	c #A0D58C",
"7$	c #BDD2DA",
"8$	c #D0DFE6",
"9$	c #ADC8D3",
"0$	c #C5DBD0",
"a$	c #7BBB58",
"b$	c #60B02B",
"c$	c #69BD31",
"d$	c #77CB43",
"e$	c #A1D58D",
"f$	c #CAE0D7",
"g$	c #C6D0DA",
"h$	c #AAB0BC",
"i$	c #9292A2",
"j$	c #67B238",
"k$	c #60B12A",
"l$	c #6ABF32",
"m$	c #71C837",
"n$	c #8ED06C",
"o$	c #CBDFD8",
"p$	c #B3CAD4",
"q$	c #B1CAD5",
"r$	c #C0D3DC",
"s$	c #72B849",
"t$	c #67BD2F",
"u$	c #87CE5F",
"v$	c #C7DFD2",
"w$	c #D4E3E7",
"x$	c #C5DCD0",
"y$	c #A6CD9E",
"z$	c #7ABB57",
"A$	c #85CD5C",
"B$	c #C2DDC9",
"C$	c #B0CAD4",
"D$	c #A7A09D",
"E$	c #B28170",
"F$	c #BAD8BD",
"G$	c #85CD5B",
"H$	c #73C93A",
"I$	c #91D171",
"J$	c #93C580",
"K$	c #87C06B",
"L$	c #73B74B",
"M$	c #7FBE5F",
"N$	c #C1DBC8",
"O$	c #C2D5DE",
"P$	c #B57963",
"Q$	c #C0DCC5",
"R$	c #8ACF64",
"S$	c #5EAE2A",
"T$	c #83BE65",
"U$	c #C3DACE",
"V$	c #ABC1CA",
"W$	c #AE8B7E",
"X$	c #B7745B",
"Y$	c #B8CED7",
"Z$	c #9DD487",
"`$	c #6BB43E",
" %	c #98C787",
".%	c #C9DCD6",
"+%	c #B4CDD7",
"@%	c #A5A5A6",
"#%	c #BADBBB",
"$%	c #7BCB48",
"%%	c #8BC273",
"&%	c #B8D5BB",
"*%	c #D2E0E5",
"=%	c #BCD1DA",
"-%	c #A1BBC6",
";%	c #B27F6C",
">%	c #D0E0E1",
",%	c #BFDCC4",
"'%	c #A7D699",
")%	c #94D277",
"!%	c #86CE5C",
"~%	c #80CD53",
"{%	c #74BA4A",
"]%	c #71B648",
"^%	c #77B953",
"/%	c #89C16F",
"(%	c #9FCB93",
"_%	c #BCD7C1",
":%	c #DCE7EC",
"<%	c #AF8779",
"[%	c #AD8E83",
"}%	c #A5BFC9",
"|%	c #DEE8EC",
"1%	c #CADFD7",
"2%	c #C5DBD1",
"3%	c #C8DCD6",
"4%	c #D0E0E3",
"5%	c #E0EAED",
"6%	c #AD8B7F",
"7%	c #DEE9ED",
"8%	c #B08778",
"9%	c #A2BCC8",
"0%	c #B6CDD7",
"a%	c #B1C8D2",
"b%	c #B6CCD5",
"c%	c #CDDCE3",
"d%	c #A0BBC6",
"e%	c #B18372",
"f%	c #A2AEB4",
"g%	c #A7C1CC",
"h%	c #C2D5DD",
"i%	c #AAC6D1",
"j%	c #A2ADB3",
"k%	c #B37E6B",
"l%	c #BA6D52",
"m%	c #A3BCC6",
"n%	c #B3CCD6",
"o%	c #C7D9E1",
"p%	c #C6D8DF",
"q%	c #A2BAC5",
"r%	c #BA6D51",
"s%	c #B2816F",
"t%	c #A4BBC4",
"u%	c #AFC9D4",
"v%	c #CBDBE2",
"w%	c #A2BAC4",
"x%	c #A3A8AA",
"y%	c #B37E6C",
"z%	c #A5AEB2",
"A%	c #A7BBC4",
"B%	c #B8CDD7",
"C%	c #BFD3DB",
"D%	c #AEC8D2",
"E%	c #A4C0CB",
"F%	c #A79D9A",
"G%	c #B57964",
"H%	c #AA968F",
"I%	c #9FB7C1",
"J%	c #9FBDC9",
"K%	c #A5A6A8",
"L%	c #B08677",
"M%	c #BA6E53",
"                            . + @ # $ % & * = = = = * & - ; > @ , .                             ",
"                        , ' ) ! ~ { ] ^ / ( _ _ _ _ ( / : < [ } | 1   .                         ",
"                    , ' 2 3 4 5 6 7 8 9 0 a 0 b b a a 0 c d 7 e 5 f g 1   ,                     ",
"                  h i j k l m n a a 9 9 9 9 o p m c 9 9 9 9 a a q r s t u v .                   ",
"              h w x y z A 9 a 9 9 9 9 9 9 a B C D E 9 9 9 9 9 9 9 a o F G H I J                 ",
"            h K L M N O a 9 9 9 9 9 9 9 9 9 8 : P O 9 9 9 9 9 9 9 9 9 0 Q R S T U h             ",
"          h U V W X 9 9 9 Y Z ` 9 9 9 9 9  ... . ... .9 9 9 9 9 ` +.@.9 9 #.$.%.&.J             ",
"          U | *.m 9 9 9 9 Z =.Y 9 9 -.;.9 >.,.'.).).!.9 -...9 9 ~.=.{.9 9 9 9 ].^./.J           ",
"        + (.%.p 9 9 9 9 9 _.:.<.[.}.|.1.2.3.4.5.6.7.8.9.0.a.b.-.c.d.e.9 9 9 9 9 f.g.x           ",
"      , h.g.i.9 9 9 9 9 9 9 ..j.k.l.m.n.o.o.p.q.r.s.t.u.v.w.x.y.z. .9 9 9 9 9 9 9 A.B.C.,       ",
"    , i D.E.c 9 9 9 9 9 9 ..F.G.H.o.I.J.J.J.J.J.K.L.L.L.L.M.M.N.O.P...9 9 9 9 9 9 n Q.R.'       ",
"    w S.T.U.9 9 9 9 9 9 V.W.X.I.I.J.J.J.q.o.I.J.K.Y.u.s.L.L.L.M.L.Z.`.9 9 9 9 9 9 9  +.+++h     ",
"  , @+#+p 0 9 c 9 9 9 ..$+%+&+J.J.J.q.n.X.*+=+-+;+>+,+'+v.s.L.L.L.s.)+!+..9 9 9 c 9 a ~+{+]+,   ",
"  ' 3 ^+o 9 f.^ /+9 ..(+_+:+J.J.I.<+[+}+|+1+2+[.[.2+3+4+5+6+v.M.L.7+8+9+0+-.9 a+: _ 9 n b+g     ",
". c+#+d+0 n e+& _ 2+P.Z.s.f+g+p.h+i+j+k+l+m+n+o+o+n+p+q+-.r+s+t+u+v+w+&+x+y+2+( z+^ 9 a p f A+. ",
"J B+C+n 9 9 D+( E+F+G+L.L.L.H+I+J+[.K+L+M+N+O+O+O+O+P+Q+R+S+T+U+V+W+J.J.X+Y+F+E A./+9 9 q 5 Z+, ",
"`+ @.@a 9 9 9 9 -.y.+@M.L.M.@@#@..$@%@&@&@O+O+O+O+O+O+*@&@=@-@[.;@>@I.J.I.,@'@[.9 9 9 9 a 6 )@!@",
"~@{@]@a 9 9 9 9 ^@/@M.L.L.(@s+_@:@<@[@O+O+O+O+O+O+O+O+N+}@|@%@1@T+2@3@J.J.I.4@^@ .9 9 9 a ]@{ 5@",
"6@7@O 9 9 9 9 -.8@9@M.L.s.0@a@b@c@&@O+O+O+O+O+O+O+O+d@e@f@g@h@i@j@k@l@p.J.I.m@n@-.9 9 9 9 O T.6@",
"o@l 9 9 9 9 9 p@q@(@L.L.v.r@s@t@O+O+O+O+O+O+O+O+O+u@v@w@w@w@x@P+y@;.z@A@J.J.B@C@;.9 9 9 9 9 l D@",
"E@e 0 9 9 9 9 V.F@u.L.s.G@H@I@J@K@O+O+O+O+O+O+O+O+u@L@w@w@w@M@&@N@j@O@P@I.J.o.G.Q@9 9 9 9 0 N R@",
"S@T@a 9 9 9 ..U@V@s.L.s.W@_@X@N+O+O+O+O+O+O+O+O+O+O+Y@f@w@f@Y@O+Z@`@ #.#o.J.p.+#@#..9 9 9 a f.* ",
"##$#a 0 %#b ..&#*#M.L.=#-#[.;#&@O+O+O+O+O+O+O+O+O+O+>#,#'#)#>#O+O+!#~#{#&+J.p.]#^#-./#<.9 a p (#",
"##$#9 @._#{.-.P.:#<#[#}#|#..1#K@O+O+O+O+O+O+O+O+O+O+O+O+O+O+O+O+O+o+[.2#3#4#5#6#7#2++.8#` 9 p (#",
"##$#9 9#_#{.[.0#6#5#4#a#b#..1#K@O+O+O+O+O+O+O+O+O+O+O+O+O+O+O+O+O+o+[.c#[#[#<#:#P.2+d#8#` 9 p e#",
"S@T@a a %#f#..y+g#p.J.J.h#[.;#&@O+O+O+O+O+O+O+O+O+O+O+O+O+O+O+O+O+i#~#j#s.L.s.k#l#..f#c.9 a m#n#",
"o#p#a 9 9 9 ..q#r#o.J.o.s#~#t#u#O+O+O+O+O+O+O+O+O+O+O+O+O+O+O+O+v#w#x#y#u.L.s.z#A# .9 9 9 a B#C#",
"D#E#0 9 9 9 9 V.F#o.J.p.G#H#I#<@&@O+O+O+O+O+O+O+O+O+O+O+O+O+O+[@J#K#L#M#M.L.u.x.V.9 9 9 9 0 N#D#",
"o@O#9 9 9 9 9 ;.P#B@J.J.Q#R#k+S#&@O+O+O+O+O+O+O+O+O+O+O+O+O+O+N+y@2+T#U#L.L.V#W#p@9 9 9 9 9 O#o@",
"X#] 8 9 9 9 9 -.Y#Z#I.J.p.r#j+S+=@[@O+O+O+O+O+O+O+O+O+O+O+O+[@`#K# $.$s.L.M.M#8@..9 9 9 9 8 G 6@",
"+${ 7 a 9 9 9  .^@@$p.J.J.#$$$b %$&$O+O+O+O+O+O+O+O+O+O+O+&@N@*$=$-$;$L.L.M.x.}.9 9 9 9 a 7 { >$",
",$'$)$a 9 9 9 9 [.J+>@I.J.I.,@!$b ~${$N+[@O+O+O+O+O+O+[@N+{$]$T+^$/$M.L.M.($_$-.9 9 9 9 a )$)@!@",
", L 5 q 9 9 :$A.<$^@[$J.J.J.W+}$|$1+j@1$2$3$O+O+O+O+3$2$1$j@1+4$5$M.L.L.U#6$F+E 7$]@9 9 8$9$| , ",
". >$f p 0 n e+& f.2+0$a$o.b$c$u+d$e$f$;.g$h$i$o+o+i$h$g$2+k@2@j$k$l$m$s.n$o$[.( z+p$9 a ].t A+. ",
"  ' 3 q$o 9 r$p$]@9 -.'@s$t$m$L.M.U#u$q@v$3+2+[.[.;.w$x$y$z$A@I.J.b$t$A$B$-.9 /+: f.9 n C$D$U   ",
"  , E$t ].0 9 c 9 9 9 9 F$G$s.L.L.L.s.H$'+I$>+c#2#J$K$L$B@q.J.J.J.I.M$N$..9 9 9 c 9 a O$t P$,   ",
"    U S.] Q 9 9 9 9 9 9 -.Q$R$=#M.L.L.L.s.u.Y.[#3#S$o.q.J.J.J.I.X+T$U$-.9 9 9 9 9 9  +V$W$      ",
"    , X$D.Y$c 9 9 9 9 9 9 ..l#Z$N.M.M.L.L.L.L.[#4#J.J.J.J.I.I.`$ %.%-.9 9 9 9 9 9 n +%@%'       ",
"      , h.S r$9 9 9 9 9 9 9  .z.#%W@$%;$t.s.M.<#5#S$q.o.X+`$%%&%*% .9 9 9 9 9 9 c =%-%;%,       ",
"        J T ^.].9 9 9 9 9 %#:.<.-.>%,%'%)%!%~%:#{%]%^%/%(%_%^@-.<.:%%#9 9 9 9 9 r$g.<%h         ",
"          U [%}%i.9 9 9 9 Z =.|%9  .-.-.}.1%P.P.0#2%3%4%;.-. .9 5%=.d#9 9 9 o A.g.+++           ",
"          h J 6%M .@o 9 9 7%+.e.9 9 9 9 9 ..-. ...[...9 9 9 9 9 ` +.:%9 9 q N S 8%+             ",
"              J ++9%0%U.a 9 9 9 9 9 9 9 9 9 E+a%b%8 9 9 9 9 9 9 9 9 9 0 c%s d%h.                ",
"                  e%f%G p #.a 9 9 9 9 9 9 9 ]@{@g%E 9 9 9 9 9 9 9 0 n h%i%j%k%h                 ",
"                  , l%L m%n%o%n a a 9 9 9 9 #.p%A c 9 9 9 9 a a q p q$q%! r%,                   ",
"                    , + s%3 t%u%T@E q a a a a b b a a a a q v%.@5 w%x%y%J h                     ",
"                        , ' # g z%A%5 B%C%X p p p p X C%Y$D%E% @F%G%' ,                         ",
"                            . h ,$+$H%I%= (#(#(#(#(#(#J%K%6@L%M%w .                             "};
